<svg width="40" height="40" viewBox="0 0 40 40" fill="none" xmlns="http://www.w3.org/2000/svg">
<rect width="40" height="40" rx="20" fill="#FFDB99"/>
<path d="M36.6432 18.3816C36.642 17.5548 36.3958 16.7468 35.9356 16.0597C35.4754 15.3727 34.822 14.8375 34.0578 14.5216C33.2936 14.2058 32.4529 14.1235 31.642 14.2852C30.8311 14.4468 30.0862 14.8452 29.5016 15.43C27.1616 13.92 24.1732 12.9583 20.8916 12.8083C20.8909 12.1235 21.0446 11.4474 21.3413 10.8302C21.6379 10.213 22.0698 9.67061 22.6049 9.24331C23.139 8.81293 23.7633 8.50863 24.4314 8.35309C25.0994 8.19755 25.794 8.19478 26.4632 8.34498L26.6499 8.38665C26.6499 8.43331 26.6432 8.47998 26.6432 8.52665C26.6414 9.36753 26.9431 10.1808 27.4929 10.8171C28.0427 11.4533 28.8036 11.8698 29.6359 11.99C30.4682 12.1101 31.3158 11.9259 32.0231 11.4712C32.7305 11.0165 33.2499 10.3217 33.4861 9.51469C33.7222 8.70764 33.6592 7.84248 33.3085 7.07819C32.9579 6.31389 32.3432 5.70181 31.5774 5.3544C30.8117 5.007 29.9463 4.94761 29.1402 5.18716C28.3342 5.4267 27.6417 5.94908 27.1899 6.65831L26.8549 6.58331C25.9216 6.37377 24.9531 6.37765 24.0216 6.59466C23.09 6.81168 22.2195 7.23623 21.4749 7.83665C20.7288 8.43259 20.1266 9.18905 19.7131 10.0498C19.2996 10.9105 19.0855 11.8534 19.0866 12.8083C15.8032 12.9583 12.8166 13.92 10.4782 15.4283C10.053 14.9991 9.53991 14.6671 8.97415 14.4551C8.4084 14.2431 7.80344 14.1562 7.20089 14.2003C6.59833 14.2444 6.01248 14.4185 5.48363 14.7106C4.95478 15.0028 4.49549 15.406 4.13733 15.8925C3.77917 16.3791 3.53065 16.9375 3.40887 17.5292C3.28708 18.121 3.29492 18.7321 3.43185 19.3206C3.56877 19.909 3.83153 20.4608 4.20205 20.938C4.57258 21.4152 5.04207 21.8065 5.57824 22.085C5.47657 22.6016 5.42324 23.1316 5.42324 23.6716C5.42324 29.6816 11.9432 34.555 19.9899 34.555C28.0332 34.555 34.5549 29.6816 34.5549 23.6716C34.5549 23.1316 34.5016 22.6033 34.3999 22.085C35.0763 21.7313 35.643 21.1992 36.0384 20.5464C36.4339 19.8936 36.6431 19.1449 36.6432 18.3816ZM30.1349 6.83998C30.5733 6.85376 30.9891 7.03759 31.2943 7.35255C31.5995 7.66751 31.7702 8.08889 31.7702 8.52748C31.7702 8.96607 31.5995 9.38745 31.2943 9.70241C30.9891 10.0174 30.5733 10.2012 30.1349 10.215C29.6965 10.2012 29.2807 10.0174 28.9755 9.70241C28.6703 9.38745 28.4996 8.96607 28.4996 8.52748C28.4996 8.08889 28.6703 7.66751 28.9755 7.35255C29.2807 7.03759 29.6965 6.85376 30.1349 6.83998ZM5.13824 18.3833C5.13824 17.0716 6.2049 16.005 7.51657 16.005C8.07824 16.005 8.59324 16.2016 8.9999 16.5283C7.72824 17.62 6.74324 18.9033 6.13157 20.3116C5.82456 20.0924 5.57429 19.8031 5.40153 19.4677C5.22877 19.1323 5.1385 18.7606 5.13824 18.3833ZM29.2082 29.9216C26.7666 31.7466 23.4916 32.7516 19.9882 32.7516C16.4849 32.7516 13.2099 31.7466 10.7699 29.9216C8.48657 28.2166 7.22824 25.9966 7.22824 23.6716C7.22824 21.3483 8.4849 19.13 10.7699 17.4216C13.2099 15.5983 16.4832 14.595 19.9882 14.595C23.4932 14.595 26.7666 15.5983 29.2082 17.4233C31.4916 19.13 32.7499 21.3483 32.7499 23.6733C32.7499 25.9966 31.4916 28.2166 29.2082 29.9233V29.9216ZM33.8449 20.31C33.2332 18.9016 32.2482 17.62 30.9766 16.5283C31.3832 16.2016 31.8999 16.005 32.4599 16.005C33.7716 16.005 34.8382 17.0716 34.8382 18.3833C34.8382 19.1766 34.4466 19.88 33.8449 20.31Z" fill="black"/>
<path d="M14.6684 23.0351C15.7205 23.0351 16.5734 22.1822 16.5734 21.1301C16.5734 20.078 15.7205 19.2251 14.6684 19.2251C13.6163 19.2251 12.7634 20.078 12.7634 21.1301C12.7634 22.1822 13.6163 23.0351 14.6684 23.0351Z" fill="#0F172A"/>
<path d="M25.3083 23.0351C26.3604 23.0351 27.2133 22.1822 27.2133 21.1301C27.2133 20.078 26.3604 19.2251 25.3083 19.2251C24.2562 19.2251 23.4033 20.078 23.4033 21.1301C23.4033 22.1822 24.2562 23.0351 25.3083 23.0351Z" fill="#0F172A"/>
<path d="M24.5017 25.7583C23.1624 26.98 21.4145 27.6565 19.6017 27.6549C18.602 27.6592 17.6123 27.4554 16.6956 27.0566C15.7789 26.6577 14.9551 26.0726 14.2767 25.3383C14.1136 25.163 13.8875 25.0597 13.6483 25.0511C13.409 25.0425 13.1761 25.1293 13.0009 25.2924C12.8256 25.4555 12.7223 25.6816 12.7137 25.9209C12.7051 26.1601 12.7919 26.393 12.955 26.5683C13.8063 27.4791 14.8354 28.2057 15.9786 28.7031C17.1219 29.2004 18.355 29.458 19.6017 29.4599C21.8648 29.462 24.0467 28.6171 25.7184 27.0916C25.8059 27.0117 25.8769 26.9154 25.9272 26.8081C25.9775 26.7007 26.0062 26.5846 26.0116 26.4662C26.017 26.3478 25.9991 26.2295 25.9588 26.118C25.9184 26.0066 25.8566 25.9042 25.7767 25.8166C25.6968 25.7291 25.6005 25.6581 25.4932 25.6078C25.3858 25.5575 25.2697 25.5288 25.1513 25.5234C25.0329 25.518 24.9146 25.5359 24.8031 25.5762C24.6917 25.6165 24.5892 25.6784 24.5017 25.7583Z" fill="#0F172A"/>
</svg>
