<svg width="24" height="22" viewBox="0 0 24 22" fill="none" xmlns="http://www.w3.org/2000/svg">
<g clip-path="url(#clip0_651_549)">
<path d="M18.0357 2.3907C16.8418 1.4411 15.3797 0.799328 13.8067 0.534462C12.2337 0.269596 10.6094 0.391662 9.10851 0.887522C7.60764 1.38338 6.28705 2.23426 5.28886 3.3486C4.29068 4.46293 3.6527 5.79852 3.44358 7.21164C3.25576 8.4507 3.40597 9.71181 3.88148 10.8882C4.357 12.0647 5.14382 13.1218 6.17537 13.9702C6.81328 14.4682 7.32803 15.0789 7.68699 15.7633C8.04595 16.4478 8.2413 17.1912 8.26065 17.9464V18.0866C8.26169 18.9386 8.64227 19.7554 9.31889 20.3578C9.99551 20.9602 10.9129 21.2991 11.8698 21.3H12.4762C13.4331 21.2991 14.3505 20.9602 15.0271 20.3578C15.7037 19.7554 16.0843 18.9386 16.0853 18.0866V17.6085C16.1 16.941 16.2764 16.2842 16.6026 15.683C16.9287 15.0818 17.3969 14.5504 17.975 14.1252C18.9126 13.3941 19.665 12.4939 20.1823 11.4844C20.6997 10.4748 20.9702 9.3789 20.9759 8.26924C20.9817 7.15958 20.7225 6.0615 20.2156 5.04775C19.7087 4.034 18.9656 3.12773 18.0357 2.38896V2.3907ZM12.4762 19.5583H11.8698C11.4316 19.5579 11.0114 19.4026 10.7015 19.1267C10.3917 18.8508 10.2173 18.4768 10.2168 18.0866C10.2168 18.0866 10.21 17.8602 10.209 17.8166H14.1292V18.0866C14.1287 18.4768 13.9543 18.8508 13.6445 19.1267C13.3346 19.4026 12.9144 19.5579 12.4762 19.5583V19.5583ZM16.682 12.8172C15.5684 13.6772 14.7641 14.8103 14.3698 16.075H13.1511V9.81891C13.7212 9.63945 14.2152 9.30753 14.5653 8.86857C14.9155 8.42961 15.1048 7.90505 15.1073 7.36665C15.1073 7.13569 15.0042 6.91419 14.8208 6.75087C14.6374 6.58756 14.3886 6.49581 14.1292 6.49581C13.8698 6.49581 13.621 6.58756 13.4376 6.75087C13.2541 6.91419 13.1511 7.13569 13.1511 7.36665C13.1511 7.5976 13.048 7.8191 12.8646 7.98242C12.6812 8.14573 12.4324 8.23748 12.173 8.23748C11.9136 8.23748 11.6648 8.14573 11.4814 7.98242C11.298 7.8191 11.1949 7.5976 11.1949 7.36665C11.1949 7.13569 11.0919 6.91419 10.9084 6.75087C10.725 6.58756 10.4762 6.49581 10.2168 6.49581C9.95742 6.49581 9.70864 6.58756 9.52521 6.75087C9.34179 6.91419 9.23874 7.13569 9.23874 7.36665C9.24125 7.90505 9.43053 8.42961 9.78069 8.86857C10.1308 9.30753 10.6248 9.63945 11.1949 9.81891V16.075H9.90188C9.46076 14.7768 8.63342 13.6089 7.50753 12.6953C6.55189 11.9025 5.87092 10.8828 5.54497 9.75663C5.21901 8.63046 5.26169 7.44477 5.66795 6.33949C6.07421 5.23421 6.82711 4.25546 7.83779 3.51875C8.84848 2.78204 10.0748 2.3181 11.3719 2.1817C11.6409 2.15498 11.9112 2.1416 12.1818 2.14164C13.8617 2.1372 15.4835 2.68907 16.7319 3.68999C17.4553 4.26439 18.0334 4.96914 18.4278 5.75754C18.8222 6.54594 19.0238 7.39997 19.0194 8.26301C19.015 9.12606 18.8045 9.97841 18.4021 10.7636C17.9996 11.5487 17.4143 12.2487 16.6849 12.8172H16.682Z" fill="#FF800B"/>
</g>
<defs>
<clipPath id="clip0_651_549">
<rect width="23.4741" height="20.9" fill="white" transform="translate(0.43576 0.399902)"/>
</clipPath>
</defs>
</svg>
