<svg width="50" height="50" viewBox="0 0 50 50" fill="none" xmlns="http://www.w3.org/2000/svg">
<g clip-path="url(#clip0_393_253)">
<path d="M37.4879 4.76271C34.945 2.49093 31.8308 0.955597 28.4803 0.321947C25.1298 -0.311704 21.6699 -0.019681 18.473 1.16659C15.2762 2.35286 12.4633 4.38846 10.3371 7.05432C8.21101 9.72019 6.8521 12.9154 6.40667 16.296C6.00663 19.2603 6.32657 22.2773 7.33942 25.0918C8.35227 27.9062 10.0282 30.4352 12.2254 32.4648C13.5842 33.6563 14.6806 35.1171 15.4452 36.7546C16.2098 38.3921 16.6259 40.1706 16.6671 41.9773V42.3127C16.6693 44.3509 17.4799 46.305 18.9211 47.7462C20.3623 49.1874 22.3164 49.998 24.3546 50.0002H25.6463C27.6844 49.998 29.6385 49.1874 31.0797 47.7462C32.5209 46.305 33.3315 44.3509 33.3338 42.3127V41.169C33.3649 39.572 33.7407 38.0006 34.4354 36.5624C35.1301 35.1241 36.1273 33.8529 37.3588 32.8356C39.3558 31.0866 40.9584 28.9331 42.0604 26.5179C43.1623 24.1027 43.7385 21.4809 43.7507 18.8262C43.7629 16.1715 43.2109 13.5445 42.1312 11.1193C41.0515 8.69405 39.4688 6.52593 37.4879 4.75855V4.76271ZM25.6463 45.8335H24.3546C23.4211 45.8324 22.5262 45.4611 21.8662 44.8011C21.2062 44.1411 20.8349 43.2462 20.8338 42.3127C20.8338 42.3127 20.8192 41.771 20.8171 41.6669H29.1671V42.3127C29.166 43.2462 28.7947 44.1411 28.1346 44.8011C27.4746 45.4611 26.5797 45.8324 25.6463 45.8335ZM34.6046 29.7065C32.2326 31.7638 30.5195 34.4747 29.6796 37.5002H27.0838V22.5335C28.2981 22.1042 29.3502 21.3101 30.0961 20.26C30.8419 19.2099 31.2451 17.9549 31.2504 16.6669C31.2504 16.1143 31.0309 15.5844 30.6402 15.1937C30.2495 14.803 29.7196 14.5835 29.1671 14.5835C28.6146 14.5835 28.0846 14.803 27.6939 15.1937C27.3032 15.5844 27.0838 16.1143 27.0838 16.6669C27.0838 17.2194 26.8643 17.7493 26.4736 18.14C26.0829 18.5307 25.553 18.7502 25.0004 18.7502C24.4479 18.7502 23.918 18.5307 23.5273 18.14C23.1366 17.7493 22.9171 17.2194 22.9171 16.6669C22.9171 16.1143 22.6976 15.5844 22.3069 15.1937C21.9162 14.803 21.3863 14.5835 20.8338 14.5835C20.2812 14.5835 19.7513 14.803 19.3606 15.1937C18.9699 15.5844 18.7504 16.1143 18.7504 16.6669C18.7558 17.9549 19.1589 19.2099 19.9048 20.26C20.6506 21.3101 21.7027 22.1042 22.9171 22.5335V37.5002H20.1629C19.2233 34.3944 17.4611 31.6006 15.0629 29.4148C13.0274 27.5181 11.5769 25.0788 10.8826 22.3846C10.1884 19.6904 10.2793 16.8538 11.1446 14.2096C12.01 11.5654 13.6136 9.22386 15.7664 7.46139C17.9192 5.69892 20.5312 4.58903 23.2942 4.26271C23.8669 4.19878 24.4428 4.16678 25.0192 4.16688C28.5974 4.15624 32.0518 5.47652 34.7108 7.87105C36.2519 9.24521 37.4832 10.9312 38.3232 12.8174C39.1632 14.7035 39.5928 16.7466 39.5833 18.8113C39.5739 20.876 39.1256 22.9151 38.2684 24.7935C37.4111 26.6718 36.1644 28.3465 34.6108 29.7065H34.6046Z" fill="white"/>
</g>
<defs>
<clipPath id="clip0_393_253">
<rect width="50" height="50" fill="white"/>
</clipPath>
</defs>
</svg>
