<svg width="182" height="224" viewBox="0 0 182 224" fill="none" xmlns="http://www.w3.org/2000/svg">
<path d="M24.1579 170.24L4.15789 174.547L6.59211 183.884L13.6316 182.084L16.7895 190.698L9.05585 193.335L14.8246 215.463C17.0367 217.324 18.6559 217.747 22.0526 217.616C24.6097 216.864 25.4955 215.894 26.2632 213.309C28.3341 214.455 28.8828 214.94 32.5789 215.463C35.9657 215.854 38.1332 214.989 39.2385 212.233L29.5714 185.314L25.7046 174.547L24.1579 170.24Z" fill="#374957"/>
<path d="M16.7895 190.698L13.6316 182.084L6.59211 183.884L1 185.314L4.15789 195.005L9.05585 193.335L16.7895 190.698Z" fill="#FFC04C"/>
<path d="M159.947 126.094V121.787L149.728 125.803L147.316 131.832L159.947 126.094Z" fill="#FFC04C"/>
<path d="M25.7046 174.547L29.5714 185.314L75.7368 164.345L94.3594 155.886L103.105 151.913L125.211 141.872L125.626 140.274L127.072 134.708L125.088 135.487L123.105 136.267L107.316 143.837L93.6316 147.85L91.4562 148.705L87.8421 150.126L86.2632 154.089L83.6316 155.166L75.7368 158.396L72.5789 156.125L25.7046 174.547Z" fill="#FFC04C"/>
<path d="M86.4251 164.856L94.6842 159.473L94.3594 155.886L75.7368 164.345L86.4251 164.856Z" fill="#FF0000"/>
<path d="M86.2632 154.089L87.8421 150.126L85.2105 148.705L79.9474 149.782L77.1404 150.126L76.7895 151.913H77.8421H78.8947L85.2105 150.859L83.6316 155.166L86.2632 154.089Z" fill="#FF0000"/>
<path d="M85.2105 148.705L87.8421 150.126L91.4562 148.705L91.5263 145.475L77.8421 146.552L77.1404 150.126L79.9474 149.782L85.2105 148.705Z" fill="#FF0000"/>
<path d="M91.5263 137.938H77.8421H73.6316L74.6842 148.705L72.5789 156.125L75.7368 158.396L83.6316 155.166L85.2105 150.859L78.8947 151.913H77.8421H76.7895L77.1404 150.126L77.8421 146.552L91.5263 145.475L91.4562 148.705L93.6316 147.85L94.6842 137.938H91.5263Z" fill="white"/>
<path d="M116.789 195.005L110.474 202.542C122.736 204.126 129.4 203.24 141 199.312L130.766 172.394L106.724 175.624L116.789 195.005Z" fill="#331908"/>
<path d="M159.947 190.698L151.526 199.312C158.953 202.84 166.567 201.838 181 199.312L170.766 172.394L150.474 175.624L159.947 190.698Z" fill="#331908"/>
<path d="M103.105 94.8689H82.0526L86.4251 104.559L88.3684 108.866C91.2559 109.136 92.872 108.974 95.7368 107.79L103.105 105.636V94.8689Z" fill="white"/>
<path d="M88.3684 108.866L86.4251 104.559H82.1336C81.6481 117.466 80.6561 124.776 77.8421 137.938H91.5263C92.5532 126.537 91.3104 123.558 95.7368 107.79C92.872 108.974 91.2559 109.136 88.3684 108.866Z" fill="#FBE6C7"/>
<path d="M133.061 84.1015C134.794 89.7394 135.355 92.7985 135.737 98.099L133.061 99.1758L136.789 106.713L133.061 120.135L148.368 123.481L151.526 114.558L154.684 105.636L150.474 84.1015H133.061Z" fill="#FBE6C7"/>
<path fill-rule="evenodd" clip-rule="evenodd" d="M58.8947 65.7971L53.6316 67.7038L68.3684 90.5619L73.6316 93.7921L77.8421 94.8689H82.0526H103.105L116.789 79.2246L121 74.4109C121.972 68.1014 121.976 64.5688 121 58.26L125.737 54.4914C127.355 53.5088 128.181 52.7455 129.421 50.7228C128.792 45.8631 128.067 43.2727 126.263 38.8788C122.445 37.9418 120.412 37.9572 116.789 38.8788C113.593 41.3915 112.185 43.0305 110.474 46.4159L107.316 42.109L91.5263 49.8334L96.7895 50.7228L86.2632 61.4902L84.1579 60.4134L91.5263 49.8334C78.9731 57.6306 71.8075 60.9968 58.8947 65.7971ZM62.0526 64.7204H75.7368L73.6316 67.7038L61 69.0273L62.0526 64.7204ZM71.5263 72.2575C72.2808 71.9706 72.7456 71.9514 73.6316 72.2575C74.947 72.7167 75.6341 73.1677 76.7895 74.4109C77.1343 75.3164 77.1628 75.7929 76.7895 76.5644C75.5641 77.3618 74.8758 77.5791 73.6316 77.6411C72.5744 77.6283 72.1447 77.3404 71.5263 76.5644C70.5769 74.8826 70.7251 73.9393 71.5263 72.2575ZM91.5263 64.7204C91.7478 63.8054 92.2206 63.3354 93.6316 62.5669C95.0383 62.7854 95.7328 63.2307 96.7895 64.7204C97.2475 65.8888 97.2018 66.5354 96.7895 67.7038C96.0104 68.5422 95.5414 68.7782 94.6842 69.0273C93.3106 69.0043 92.6348 68.6701 91.5263 67.7038C91.3181 66.608 91.3394 65.9505 91.5263 64.7204Z" fill="#FBE6C7"/>
<path d="M91.5263 49.8334L84.1579 60.4134L86.2632 61.4902L96.7895 50.7228L91.5263 49.8334Z" fill="black"/>
<path d="M75.7368 64.7204H62.0526L61 69.0273L73.6316 67.7038L75.7368 64.7204Z" fill="black"/>
<path d="M93.6316 62.5669C92.2206 63.3354 91.7478 63.8054 91.5263 64.7204C91.3394 65.9505 91.3181 66.608 91.5263 67.7038C92.6348 68.6701 93.3106 69.0043 94.6842 69.0273C95.5414 68.7782 96.0104 68.5422 96.7895 67.7038C97.2018 66.5354 97.2475 65.8888 96.7895 64.7204C95.7328 63.2307 95.0383 62.7854 93.6316 62.5669Z" fill="black"/>
<path d="M73.6316 72.2575C72.7456 71.9514 72.2808 71.9706 71.5263 72.2575C70.7251 73.9393 70.5769 74.8826 71.5263 76.5644C72.1447 77.3404 72.5744 77.6283 73.6316 77.6411C74.8758 77.5791 75.5641 77.3618 76.7895 76.5644C77.1628 75.7929 77.1343 75.3164 76.7895 74.4109C75.6341 73.1677 74.947 72.7167 73.6316 72.2575Z" fill="black"/>
<path d="M116.789 38.8788C120.412 37.9572 122.445 37.9418 126.263 38.8788L121 30.736C116.442 36.4138 113.382 38.8068 107.316 42.109L110.474 46.4159C112.185 43.0305 113.593 41.3915 116.789 38.8788Z" fill="black"/>
<path d="M159.947 121.787V126.094L147.316 131.832V137.938L143.105 142.064L141 144.127C139.286 150.541 139.479 154.136 141 160.55L150.474 175.624L170.766 172.394L166.263 160.55C166.489 150.335 167.952 144.001 172.579 131.832C176.336 122.863 175.706 117.835 172.579 108.866L151.526 114.558L148.368 123.481L150.474 123.941L149.728 125.803L159.947 121.787Z" fill="#75A87D"/>
<path d="M103.105 151.913C100.229 154.655 99.3562 156.571 98.8947 160.55L106.724 175.624L130.766 172.394L126.263 160.55C129.313 153.415 131.295 149.601 136.789 144.127H127.072L125.211 141.872L103.105 151.913Z" fill="#75A87D"/>
<path d="M121 125.803C115.328 132.368 112.241 136.185 107.316 143.837L123.105 136.267V131.832L125.211 130.278L129.421 127.171L130.382 121.787L121 125.803Z" fill="#75A87D"/>
<path d="M123.105 131.832V136.267L125.088 135.487C124.405 133.453 124.376 132.313 125.211 130.278L123.105 131.832Z" fill="#FF0000"/>
<path fill-rule="evenodd" clip-rule="evenodd" d="M127.072 134.708L125.626 140.274C129.995 141.791 133.731 142.214 143.105 142.064L147.316 137.938V131.832L149.728 125.803L150.474 123.941L148.368 123.481L133.061 120.135L130.766 119.634L130.382 121.787L129.421 127.171L125.211 130.278C124.376 132.313 124.405 133.453 125.088 135.487L127.072 134.708Z" fill="white"/>
<path d="M136.789 144.127H141L143.105 142.064C133.731 142.214 129.995 141.791 125.626 140.274L125.211 141.872L127.072 144.127H136.789Z" fill="#FF0000"/>
<path d="M103.105 94.8689V105.636L111.526 116.403L121 125.803L130.382 121.787L130.766 119.634L133.061 120.135L136.789 106.713L133.061 99.1758C128.217 100.023 125.592 99.9619 121 99.1758C118.52 91.5759 117.622 87.2023 116.789 79.2246L103.105 94.8689Z" fill="#202529" fill-opacity="0.77"/>
<path d="M172.579 108.866C168.183 95.5957 164.895 88.0968 154.684 74.4109C149.313 67.8044 146.327 64.95 141 61.4902C133.889 58.4461 130.739 57.7579 126.669 58.26C129.875 68.7221 131.268 74.3764 133.061 84.1015H150.474L154.684 105.636L151.526 114.558L172.579 108.866Z" fill="#202529" fill-opacity="0.77"/>
<path d="M82.0526 94.8689H77.8421V104.559H82.1336H86.4251L82.0526 94.8689Z" fill="#202529" fill-opacity="0.77"/>
<path d="M43.1053 58.26L110.474 22.7278L107.316 19.6771L42.1978 52.8763L43.1053 58.26Z" fill="#F64F4F"/>
<path d="M43.1053 58.26L8.36842 84.1015C26.2431 80.9949 36.8563 77.5973 53.6316 67.7038L58.8947 65.7971C71.8075 60.9968 78.9731 57.6306 91.5263 49.8334L107.316 42.109C113.382 38.8068 116.442 36.4138 121 30.736C132.21 24.942 135.188 21.0154 141 14.1139L110.474 22.7278L43.1053 58.26Z" fill="#FFC04C" fill-opacity="0.69"/>
<path d="M41.2904 47.4926L42.1978 52.8763L107.316 19.6771L104.158 16.6263L41.2904 47.4926Z" fill="#FFC04C"/>
<path d="M91.5263 4.42335C79.2588 -0.191754 72.0882 -0.0901928 58.8947 4.42335C47.9286 9.46034 42.6288 15.738 37.8421 27.0347L38.7495 32.4184L40.02 39.9555L99.3282 11.9605L93.6316 6.45718L91.5263 4.42335Z" fill="#FFC04C" fill-opacity="0.69"/>
<path d="M99.3282 11.9605L40.02 39.9555L41.2904 47.4926L104.158 16.6263L99.3282 11.9605Z" fill="#DCAE5A"/>
<path d="M25.7046 174.547L24.1579 170.24L4.15789 174.547L6.59211 183.884M25.7046 174.547L29.5714 185.314M25.7046 174.547L72.5789 156.125M29.5714 185.314L75.7368 164.345M29.5714 185.314L39.2385 212.233M43.1053 58.26L8.36842 84.1015C26.2431 80.9949 36.8563 77.5973 53.6316 67.7038M43.1053 58.26L110.474 22.7278M43.1053 58.26L42.1978 52.8763M107.316 42.109L110.474 46.4159C112.185 43.0305 113.593 41.3915 116.789 38.8788C120.412 37.9572 122.445 37.9418 126.263 38.8788M107.316 42.109C113.383 38.8068 116.442 36.4138 121 30.736M107.316 42.109L91.5263 49.8334M110.474 22.7278L141 14.1139C135.188 21.0154 132.21 24.942 121 30.736M110.474 22.7278L107.316 19.6771M53.6316 67.7038L58.8947 65.7971C71.8075 60.9968 78.9731 57.6306 91.5263 49.8334M53.6316 67.7038L68.3684 90.5619L73.6316 93.7921L77.8421 94.8689M103.105 94.8689H82.0526M103.105 94.8689V105.636M103.105 94.8689L116.789 79.2246M126.263 38.8788C128.067 43.2727 128.792 45.8631 129.421 50.7228C128.181 52.7455 127.355 53.5088 125.737 54.4914M126.263 38.8788L121 30.736M82.0526 94.8689H77.8421M82.0526 94.8689L86.4251 104.559M103.105 105.636L95.7368 107.79M103.105 105.636L111.526 116.403L121 125.803M116.789 79.2246L121 74.4109C121.972 68.1014 121.976 64.5688 121 58.26L125.737 54.4914M116.789 79.2246C117.622 87.2023 118.52 91.5759 121 99.1758C125.592 99.9619 128.217 100.023 133.061 99.1758M125.737 54.4914L126.669 58.26M121 125.803C115.328 132.368 112.241 136.185 107.316 143.837M121 125.803L130.382 121.787M107.316 143.837L93.6316 147.85M107.316 143.837L123.105 136.267M103.105 151.913C100.229 154.655 99.3562 156.571 98.8947 160.55L106.724 175.624M103.105 151.913L125.211 141.873M103.105 151.913L94.3594 155.886M136.789 144.127C131.295 149.601 129.313 153.415 126.263 160.55L130.766 172.394M136.789 144.127H141M136.789 144.127H127.072L125.211 141.873M141 144.127C139.286 150.541 139.479 154.136 141 160.55L150.474 175.624M141 144.127L143.105 142.064M147.316 131.832L159.947 126.094V121.787L149.728 125.803M147.316 131.832V137.938L143.105 142.064M147.316 131.832L149.728 125.803M172.579 108.866C175.706 117.835 176.336 122.863 172.579 131.832C167.952 144.001 166.489 150.335 166.263 160.55L170.766 172.394M172.579 108.866C168.183 95.5957 164.895 88.0968 154.684 74.4109C149.313 67.8044 146.327 64.95 141 61.4902C133.889 58.4461 130.739 57.7579 126.669 58.26M172.579 108.866L151.526 114.558M126.669 58.26C129.875 68.7221 131.268 74.3764 133.061 84.1015M133.061 84.1015C134.794 89.7394 135.355 92.7985 135.737 98.099L133.061 99.1758M133.061 84.1015H150.474M136.789 65.7971L151.526 84.1015H150.474M77.8421 94.8689V104.559H82.1336M86.4251 104.559L88.3684 108.866C91.2559 109.136 92.872 108.974 95.7368 107.79M86.4251 104.559H82.1336M82.1336 104.559C81.6481 117.466 80.6561 124.776 77.8421 137.938M77.8421 137.938H91.5263M77.8421 137.938H73.6316L74.6842 148.705L72.5789 156.125M91.5263 137.938C92.5532 126.537 91.3104 123.558 95.7368 107.79M91.5263 137.938H94.6842L93.6316 147.85M72.5789 156.125L75.7368 158.396L83.6316 155.166M87.8421 150.126L86.2632 154.089L83.6316 155.166M87.8421 150.126L85.2105 148.705L79.9474 149.782L77.1404 150.126M87.8421 150.126L91.4562 148.705M93.6316 147.85L91.4562 148.705M75.7368 164.345L86.4251 164.856L94.6842 159.473L94.3594 155.886M75.7368 164.345L94.3594 155.886M39.2385 212.233L43.1053 223H16.7895L14.8246 215.463M39.2385 212.233C38.1332 214.989 35.9657 215.854 32.5789 215.463C28.8828 214.94 28.3341 214.455 26.2632 213.309C25.4955 215.894 24.6097 216.864 22.0526 217.616C18.6559 217.747 17.0367 217.324 14.8246 215.463M14.8246 215.463L9.05585 193.335M106.724 175.624L116.789 195.005L110.474 202.542C122.736 204.126 129.4 203.24 141 199.312L130.766 172.394M106.724 175.624L130.766 172.394M150.474 175.624L159.947 190.698L151.526 199.312C158.953 202.84 166.567 201.838 181 199.312L170.766 172.394M150.474 175.624L170.766 172.394M123.105 136.267V131.832L125.211 130.278M123.105 136.267L125.088 135.487M127.072 134.708L125.088 135.487M127.072 134.708L125.626 140.274M127.072 134.708C126.495 136.928 126.119 138.374 125.626 140.274M125.211 141.873L125.626 140.274M125.211 141.873C125.361 141.295 125.497 140.769 125.626 140.274M133.061 99.1758L136.789 106.713L133.061 120.135M133.061 120.135L130.766 119.634L130.382 121.787M133.061 120.135L148.368 123.481M148.368 123.481L150.474 123.941L149.728 125.803M148.368 123.481L151.526 114.558M150.474 84.1015L154.684 105.636L151.526 114.558M94.6842 89.4852C95.7325 90.3542 96.3585 90.7493 97.8421 90.5619C99.7922 90.413 100.718 89.9513 102.053 88.4085C102.831 86.5862 102.762 85.6551 102.053 84.1015M86.2632 79.7946L85.2105 83.0248H89.4211M91.5263 49.8334L84.1579 60.4134L86.2632 61.4902L96.7895 50.7228L91.5263 49.8334ZM40.02 39.9555L38.7495 32.4184L37.8421 27.0347C42.6288 15.738 47.9286 9.46034 58.8947 4.42335C72.0882 -0.0901928 79.2588 -0.191754 91.5263 4.42335L93.6316 6.45718L99.3282 11.9605M40.02 39.9555L99.3282 11.9605M40.02 39.9555L41.2904 47.4926M99.3282 11.9605L104.158 16.6263M41.2904 47.4926L42.1978 52.8763M41.2904 47.4926L104.158 16.6263M104.158 16.6263L107.316 19.6771M6.59211 183.884L13.6316 182.084L16.7895 190.698L9.05585 193.335M6.59211 183.884L1 185.314L4.15789 195.005L9.05585 193.335M83.6316 155.166L85.2105 150.859L78.8947 151.913H77.8421H76.7895L77.1404 150.126M91.4562 148.705L91.5263 145.475L77.8421 146.552L77.1404 150.126M130.382 121.787L129.421 127.171L125.211 130.278M125.211 130.278C124.376 132.313 124.405 133.453 125.088 135.487M143.105 142.064C133.731 142.214 129.996 141.791 125.626 140.274M42.1978 52.8763L107.316 19.6771M75.7368 64.7204H62.0526L61 69.0273L73.6316 67.7038L75.7368 64.7204ZM73.6316 72.2575C72.7456 71.9514 72.2808 71.9706 71.5263 72.2575C70.7251 73.9393 70.5769 74.8826 71.5263 76.5644C72.1447 77.3404 72.5744 77.6283 73.6316 77.6411C74.8758 77.5791 75.5641 77.3618 76.7895 76.5644C77.1628 75.7929 77.1343 75.3164 76.7895 74.4109C75.6341 73.1677 74.947 72.7167 73.6316 72.2575ZM93.6316 62.5669C92.2206 63.3354 91.7478 63.8054 91.5263 64.7204C91.3394 65.9505 91.3181 66.608 91.5263 67.7038C92.6348 68.67 93.3106 69.0043 94.6842 69.0273C95.5414 68.7782 96.0104 68.5422 96.7895 67.7038C97.2018 66.5354 97.2475 65.8888 96.7895 64.7204C95.7328 63.2307 95.0383 62.7854 93.6316 62.5669Z" stroke="black" stroke-opacity="0.29" stroke-width="0.2"/>
</svg>
