<svg width="50" height="50" viewBox="0 0 50 50" fill="none" xmlns="http://www.w3.org/2000/svg">
<g clip-path="url(#clip0_393_252)">
<path d="M2.08313 50.0009C2.63562 50.0008 3.16544 49.7812 3.55605 49.3905L17.3456 35.6009L19.9456 38.2925C21.9053 40.3634 24.6062 41.5726 27.456 41.655C28.4061 41.6579 29.3496 41.498 30.2456 41.1821C31.6301 40.7055 32.8464 39.8371 33.7469 38.6826C34.6474 37.528 35.1934 36.1368 35.3185 34.678C35.5446 32.5652 35.3879 30.4289 34.856 28.3717L34.4102 26.2009C34.3257 25.8537 34.332 25.4907 34.4283 25.1467C34.5246 24.8026 34.7078 24.4891 34.9602 24.2363L38.2665 20.928C38.3969 20.797 38.5733 20.7223 38.7581 20.7196C38.823 20.7076 38.8899 20.7138 38.9514 20.7378C39.0129 20.7617 39.0664 20.8023 39.106 20.855C40.1525 21.9647 41.5603 22.665 43.0766 22.8299C44.5929 22.9949 46.1184 22.6138 47.379 21.755C48.1187 21.2277 48.7345 20.5455 49.1836 19.7559C49.6327 18.9663 49.9043 18.0883 49.9795 17.183C50.0547 16.2777 49.9316 15.3669 49.6188 14.514C49.3061 13.6611 48.8111 12.8867 48.1685 12.2446L37.9165 1.98838C36.8638 0.90942 35.4653 0.234803 33.9656 0.0824725C32.466 -0.0698581 30.9604 0.309791 29.7123 1.15504C28.9725 1.6822 28.3564 2.36429 27.9071 3.15382C27.4578 3.94335 27.186 4.82134 27.1107 5.72664C27.0353 6.63193 27.1582 7.54278 27.4708 8.39573C27.7834 9.24868 28.2781 10.0232 28.9206 10.6655L29.079 10.8238C29.1983 10.944 29.2653 11.1065 29.2653 11.2759C29.2653 11.4453 29.1983 11.6078 29.079 11.728L25.7456 15.0613C25.4899 15.3165 25.1723 15.5008 24.8238 15.5961C24.4754 15.6914 24.1081 15.6945 23.7581 15.605L22.056 15.1696C19.9624 14.6228 17.7873 14.4584 15.6352 14.6842C14.1089 14.8423 12.6596 15.4334 11.4581 16.388C10.2566 17.3425 9.35306 18.6206 8.85397 20.0717C8.30931 21.5629 8.20191 23.1786 8.54442 24.7287C8.88692 26.2788 9.66507 27.6989 10.7873 28.8217L14.4498 32.6134L0.610217 46.4446C0.318947 46.736 0.1206 47.1072 0.0402514 47.5112C-0.0400977 47.9153 0.00115853 48.3341 0.158804 48.7147C0.31645 49.0954 0.583408 49.4207 0.925928 49.6496C1.26845 49.8786 1.67115 50.0008 2.08313 50.0009ZM12.781 21.4592C13.0158 20.7495 13.4513 20.123 14.0348 19.6556C14.6182 19.1882 15.3247 18.9 16.0685 18.8259C16.5482 18.776 17.0301 18.7509 17.5123 18.7509C18.6942 18.7509 19.8712 18.9029 21.0144 19.203L22.729 19.6405C23.7794 19.9062 24.8808 19.8953 25.9258 19.6087C26.9707 19.322 27.9236 18.7696 28.6915 18.005L32.0248 14.6717C32.9242 13.7696 33.4293 12.5477 33.4293 11.2738C33.4293 9.9999 32.9242 8.77798 32.0248 7.87588L31.8665 7.71754C31.6508 7.50234 31.4849 7.24244 31.3805 6.95616C31.2762 6.66989 31.2359 6.36421 31.2625 6.06067C31.2891 5.75713 31.382 5.46313 31.5346 5.19939C31.6872 4.93565 31.8958 4.70858 32.1456 4.53421C32.5902 4.2651 33.1139 4.15752 33.6285 4.22963C34.1432 4.30174 34.6172 4.54912 34.9706 4.93004L45.229 15.1884C45.4447 15.4036 45.6106 15.6635 45.7149 15.9498C45.8193 16.236 45.8595 16.5417 45.8329 16.8452C45.8063 17.1488 45.7134 17.4428 45.5608 17.7065C45.4083 17.9703 45.1997 18.1973 44.9498 18.3717C44.5004 18.6445 43.97 18.7521 43.4498 18.6761C42.9297 18.6 42.4523 18.3451 42.0998 17.955C41.6712 17.5131 41.1583 17.1615 40.5915 16.921C40.0247 16.6806 39.4155 16.5561 38.7998 16.555C37.501 16.561 36.2555 17.072 35.3269 17.98L32.0227 21.2863C31.2724 22.0371 30.7257 22.9666 30.4341 23.9872C30.1425 25.0078 30.1157 26.0858 30.3561 27.1196L30.8123 29.3238C31.2327 30.9309 31.3604 32.6006 31.1894 34.253C31.1396 34.9269 30.8929 35.5713 30.4799 36.1061C30.0669 36.6409 29.5058 37.0426 28.8665 37.2613C27.8007 37.5415 26.6774 37.5141 25.6266 37.1822C24.5758 36.8504 23.6405 36.2277 22.929 35.3863L13.7623 25.9071C13.1907 25.3371 12.7945 24.6151 12.6206 23.8268C12.4467 23.0385 12.5024 22.2168 12.781 21.4592Z" fill="white"/>
</g>
<defs>
<clipPath id="clip0_393_252">
<rect width="50" height="50" fill="white"/>
</clipPath>
</defs>
</svg>
