<svg width="13" height="13" viewBox="0 0 13 13" fill="none" xmlns="http://www.w3.org/2000/svg">
<g clip-path="url(#clip0_401_507)">
<path d="M6.50004 3.25C6.07152 3.25 5.65261 3.37707 5.29631 3.61515C4.94 3.85323 4.66229 4.19161 4.4983 4.58752C4.33431 4.98343 4.29141 5.41907 4.37501 5.83936C4.45861 6.25965 4.66496 6.64572 4.96798 6.94873C5.27099 7.25175 5.65705 7.4581 6.07735 7.5417C6.49764 7.6253 6.93328 7.5824 7.32919 7.41841C7.7251 7.25442 8.06348 6.97671 8.30156 6.6204C8.53964 6.2641 8.66671 5.84519 8.66671 5.41667C8.66671 4.84203 8.43844 4.29093 8.03211 3.8846C7.62578 3.47827 7.07468 3.25 6.50004 3.25ZM6.50004 6.5C6.28578 6.5 6.07633 6.43646 5.89817 6.31743C5.72002 6.19839 5.58117 6.02919 5.49917 5.83124C5.41718 5.63329 5.39572 5.41547 5.43752 5.20532C5.47933 4.99517 5.5825 4.80214 5.73401 4.65063C5.88552 4.49913 6.07855 4.39595 6.28869 4.35415C6.49884 4.31235 6.71666 4.3338 6.91462 4.4158C7.11257 4.49779 7.28176 4.63665 7.4008 4.8148C7.51984 4.99295 7.58338 5.2024 7.58338 5.41667C7.58338 5.70398 7.46924 5.97953 7.26607 6.1827C7.06291 6.38586 6.78736 6.5 6.50004 6.5Z" fill="black"/>
<path d="M6.49996 13.0001C6.04384 13.0024 5.59381 12.8955 5.18753 12.6881C4.78126 12.4808 4.43057 12.1792 4.16483 11.8084C2.10054 8.9609 1.0535 6.82023 1.0535 5.44548C1.0535 4.00099 1.62732 2.61566 2.64873 1.59425C3.67014 0.572845 5.05546 -0.000976562 6.49996 -0.000976562C7.94445 -0.000976562 9.32977 0.572845 10.3512 1.59425C11.3726 2.61566 11.9464 4.00099 11.9464 5.44548C11.9464 6.82023 10.8994 8.9609 8.83508 11.8084C8.56934 12.1792 8.21865 12.4808 7.81238 12.6881C7.4061 12.8955 6.95607 13.0024 6.49996 13.0001ZM6.49996 1.18148C5.36918 1.18277 4.28509 1.63254 3.48551 2.43212C2.68593 3.2317 2.23616 4.31579 2.23487 5.44657C2.23487 6.53532 3.26025 8.54869 5.12141 11.1157C5.27942 11.3333 5.4867 11.5104 5.7263 11.6325C5.9659 11.7547 6.23102 11.8184 6.49996 11.8184C6.76889 11.8184 7.03401 11.7547 7.27361 11.6325C7.51321 11.5104 7.7205 11.3333 7.8785 11.1157C9.73966 8.54869 10.765 6.53532 10.765 5.44657C10.7637 4.31579 10.314 3.2317 9.5144 2.43212C8.71482 1.63254 7.63073 1.18277 6.49996 1.18148Z" fill="black"/>
</g>
<defs>
<clipPath id="clip0_401_507">
<rect width="13" height="13" fill="white"/>
</clipPath>
</defs>
</svg>
