<svg width="90" height="105" viewBox="0 0 90 105" fill="none" xmlns="http://www.w3.org/2000/svg">
<path d="M22.0632 12.5021C33.4373 1.22253 57.9457 -0.469404 68.7781 0.0945732C61.8724 7.31358 69.9629 20.3977 74.8714 26.0374C76.4962 13.4043 80.6261 15.1339 82.4879 17.5778C78.832 25.2478 85.3653 25.6614 89.0889 24.9095C92.7449 33.4819 84.519 32.6172 79.9491 31.1132C75.0745 25.2478 73.1788 32.4292 72.8403 36.753C80.9646 45.3254 79.272 50.1005 77.4102 51.4164C72.1294 54.1235 69.4551 48.4085 68.7781 45.2127C68.7781 58.7481 62.3463 68.9956 59.1305 72.4275C51.5051 73.4707 46.8511 79.0467 45.4207 81.8712C41.7647 100.821 35.096 105.182 32.2186 104.994C26.1254 67.095 11.4 69.6517 4.799 75.6674C-5.35641 67.5462 2.93718 37.693 8.35339 23.7815C14.0404 21.5256 19.8629 15.3219 22.0632 12.5021Z" fill="#FFDB99"/>
</svg>
