<svg width="77" height="116" viewBox="0 0 77 116" fill="none" xmlns="http://www.w3.org/2000/svg">
<path d="M35.9671 11.7042C45.2882 -9.49323 56.0614 2.87194 60.2829 11.7042C70.8197 21.0565 71.0899 41.5339 69.9079 50.6037C61.8026 73.1541 71.2588 86.6844 77 90.6307C64.4368 103.259 49.4759 105.664 43.5658 105.289C25.9396 101.532 9.26778 109.395 1.65936 114.759C1.11637 115.171 0.563306 115.584 0 116C0.491364 115.607 1.0459 115.191 1.65936 114.759C37.0554 87.9088 29.5917 69.1141 21.2763 63.0064C29.7868 36.8479 17.7303 20.1605 10.6382 15.0867L35.9671 11.7042Z" fill="#FFDB99"/>
</svg>
