<svg width="50" height="50" viewBox="0 0 50 50" fill="none" xmlns="http://www.w3.org/2000/svg">
<path fill-rule="evenodd" clip-rule="evenodd" d="M46.875 25C46.875 30.8016 44.5703 36.3656 40.468 40.468C36.3656 44.5703 30.8016 46.875 25 46.875C19.1984 46.875 13.6344 44.5703 9.53204 40.468C5.42968 36.3656 3.125 30.8016 3.125 25C3.125 19.1984 5.42968 13.6344 9.53204 9.53204C13.6344 5.42968 19.1984 3.125 25 3.125C30.8016 3.125 36.3656 5.42968 40.468 9.53204C44.5703 13.6344 46.875 19.1984 46.875 25ZM12.4986 23.8951C12.7916 23.6021 13.1891 23.4375 13.6035 23.4375H31.7066L24.9972 16.7313C24.7038 16.4379 24.539 16.0399 24.539 15.625C24.539 15.2101 24.7038 14.8121 24.9972 14.5187C25.2906 14.2254 25.6885 14.0605 26.1035 14.0605C26.5184 14.0605 26.9163 14.2254 27.2097 14.5187L36.5847 23.8937C36.7302 24.0389 36.8457 24.2113 36.9244 24.4011C37.0032 24.591 37.0438 24.7945 37.0438 25C37.0438 25.2055 37.0032 25.409 36.9244 25.5989C36.8457 25.7887 36.7302 25.9611 36.5847 26.1063L27.2097 35.4813C27.0644 35.6265 26.892 35.7418 26.7022 35.8204C26.5123 35.899 26.3089 35.9395 26.1035 35.9395C25.898 35.9395 25.6946 35.899 25.5048 35.8204C25.3149 35.7418 25.1425 35.6265 24.9972 35.4813C24.8519 35.336 24.7367 35.1635 24.6581 34.9737C24.5795 34.7839 24.539 34.5804 24.539 34.375C24.539 34.1696 24.5795 33.9661 24.6581 33.7763C24.7367 33.5865 24.8519 33.414 24.9972 33.2687L31.7066 26.5625H13.6035C13.1891 26.5625 12.7916 26.3979 12.4986 26.1049C12.2056 25.8118 12.041 25.4144 12.041 25C12.041 24.5856 12.2056 24.1882 12.4986 23.8951Z" fill="white"/>
<path fill-rule="evenodd" clip-rule="evenodd" d="M40.468 40.468C44.5703 36.3656 46.875 30.8016 46.875 25C46.875 19.1984 44.5703 13.6344 40.468 9.53204C36.3656 5.42968 30.8016 3.125 25 3.125C19.1984 3.125 13.6344 5.42968 9.53204 9.53204C5.42968 13.6344 3.125 19.1984 3.125 25C3.125 30.8016 5.42968 36.3656 9.53204 40.468C13.6344 44.5703 19.1984 46.875 25 46.875C30.8016 46.875 36.3656 44.5703 40.468 40.468ZM7.32233 42.6777C2.63392 37.9893 0 31.6304 0 25C0 18.3696 2.63392 12.0107 7.32233 7.32233C12.0107 2.63392 18.3696 0 25 0C31.6304 0 37.9893 2.63392 42.6777 7.32233C47.3661 12.0107 50 18.3696 50 25C50 31.6304 47.3661 37.9893 42.6777 42.6777C37.9893 47.3661 31.6304 50 25 50C18.3696 50 12.0107 47.3661 7.32233 42.6777Z" fill="white"/>
<path d="M13.6035 23.4375C13.1891 23.4375 12.7916 23.6021 12.4986 23.8951C12.2056 24.1882 12.041 24.5856 12.041 25C12.041 25.4144 12.2056 25.8118 12.4986 26.1049C12.7916 26.3979 13.1891 26.5625 13.6035 26.5625H31.7066L24.9972 33.2687C24.8519 33.414 24.7367 33.5865 24.6581 33.7763C24.5795 33.9661 24.539 34.1696 24.539 34.375C24.539 34.5804 24.5795 34.7839 24.6581 34.9737C24.7367 35.1635 24.8519 35.336 24.9972 35.4813C25.1425 35.6265 25.3149 35.7418 25.5048 35.8204C25.6946 35.899 25.898 35.9395 26.1035 35.9395C26.3089 35.9395 26.5123 35.899 26.7022 35.8204C26.892 35.7418 27.0644 35.6265 27.2097 35.4813L36.5847 26.1063C36.7302 25.9611 36.8457 25.7887 36.9244 25.5989C37.0032 25.409 37.0438 25.2055 37.0438 25C37.0438 24.7945 37.0032 24.591 36.9244 24.4011C36.8457 24.2113 36.7302 24.0389 36.5847 23.8937L27.2097 14.5187C26.9163 14.2254 26.5184 14.0605 26.1035 14.0605C25.6885 14.0605 25.2906 14.2254 24.9972 14.5187C24.7038 14.8121 24.539 15.2101 24.539 15.625C24.539 16.0399 24.7038 16.4379 24.9972 16.7313L31.7066 23.4375H13.6035Z" fill="black"/>
</svg>
