<svg width="125" height="25" viewBox="0 0 125 25" fill="none" xmlns="http://www.w3.org/2000/svg">
<path d="M1.35433 10.4239L0 6.9987L5.99352 5.64236L6.74219 8.08015L19.806 5.54832L20.5967 10.6735L14.885 11.292L15.028 11.9502L20.6934 11.3751L21.1603 15.0608L3.84847 16.7462L2.65397 13.7153L8.5087 12.8906L8.31523 12.2902L5.07241 12.7894C4.23402 12.9075 3.49096 12.7592 2.84324 12.3445C2.19272 11.9297 1.69641 11.2895 1.35433 10.4239ZM13.0638 24.8481C11.0758 24.918 9.49851 24.6733 8.33205 24.1139C7.07306 23.5882 6.19962 22.7045 5.71172 21.4627L5.40469 20.685C5.9739 20.6344 6.48422 20.5777 6.93566 20.515C7.37869 20.4524 7.8049 20.3812 8.21428 20.3017C8.61806 20.2221 9.02744 20.1268 9.44243 20.0159C9.85462 19.905 10.3061 19.7676 10.7968 19.6036L10.6159 18.9923C10.1168 19.1587 9.65974 19.2986 9.24475 19.4119C8.82695 19.5252 8.41337 19.6229 8.00398 19.7049C7.5918 19.7868 7.16139 19.8604 6.71275 19.9255C6.2585 19.9882 5.74537 20.0473 5.17336 20.1027L4.04615 17.2454L21.2234 15.6539L21.4884 18.9706C20.664 19.3613 19.7709 19.6603 18.8091 19.8676C17.8754 20.0774 16.9431 20.2052 16.0122 20.251L16.1131 20.8948C17.03 20.8562 17.9497 20.7345 18.8722 20.5295C19.82 20.3246 20.7032 20.0292 21.522 19.6434L21.5599 23.3688C20.3962 23.8052 19.1176 24.15 17.724 24.4032C16.3837 24.6564 14.8303 24.8047 13.0638 24.8481ZM21.686 8.35504C21.3944 6.36574 21.679 4.75019 22.5399 3.50839C23.4259 2.26659 24.9779 1.72767 27.1959 1.89164C29.4699 2.24609 31.214 3.06231 32.4281 4.34028C33.617 5.56038 34.2759 7.07586 34.4049 8.88672C34.5115 10.6686 34.0544 12.025 33.0338 12.9557C32.0243 13.9106 30.4737 14.3555 28.382 14.2904C26.3435 14.2759 24.7901 13.7575 23.7217 12.7351C22.6198 11.72 21.9412 10.2599 21.686 8.35504ZM41.7107 15.1114L35.1199 14.6955L34.447 3.55903L41.3574 4.966L41.4457 6.70573L43.3847 7.03125L43.5487 12.4566L41.656 12.283L41.7107 15.1114ZM25.7448 7.42549L25.5345 8.25015C27.1188 8.91083 28.7675 9.29181 30.4807 9.39309L30.4135 8.59737C29.5891 8.53709 28.7956 8.40085 28.0329 8.18866C27.273 7.98611 26.5103 7.73172 25.7448 7.42549ZM22.8595 19.817C22.8315 18.9296 22.9745 18.1701 23.2885 17.5383C23.6026 16.8994 24.1185 16.3725 24.8363 15.9578C25.5682 15.5454 26.5257 15.2464 27.709 15.0608C28.9147 14.8944 30.3644 14.8413 32.058 14.9016C33.7824 14.9836 35.284 15.1512 36.5626 15.4044C37.8524 15.6551 38.9165 15.9939 39.7549 16.4207C40.5933 16.8403 41.2144 17.3539 41.6182 17.9615C42.0192 18.5643 42.2154 19.2853 42.207 20.1244C42.1958 20.9635 41.9827 21.6725 41.5677 22.2512C41.1527 22.8323 40.519 23.3037 39.6666 23.6654C38.8142 24.0295 37.7347 24.2923 36.428 24.4538C35.127 24.6202 33.6016 24.6962 31.8519 24.6817C30.1387 24.6697 28.6862 24.572 27.4945 24.3887C26.3561 24.2055 25.4504 23.921 24.7774 23.5352C24.1185 23.1518 23.6404 22.6563 23.3432 22.0486C23.0292 21.441 22.8679 20.6971 22.8595 19.817ZM29.2905 18.5221L28.9876 19.2528C29.4419 19.4915 29.9284 19.694 30.4471 19.8604C30.9714 20.0268 31.5098 20.1606 32.0622 20.2619C32.6202 20.3631 33.181 20.4319 33.7446 20.468C34.3138 20.5042 34.8634 20.5126 35.3933 20.4933L35.406 19.7808C34.9096 19.8001 34.3895 19.7868 33.8455 19.741C33.3072 19.6952 32.7744 19.6205 32.2473 19.5168C31.7229 19.4155 31.2056 19.2805 30.6953 19.1117C30.1877 18.9453 29.7195 18.7488 29.2905 18.5221ZM65.6848 6.89381L65.6722 24.5696L58.4211 24.5877L58.4253 23.3941C57.8589 23.3917 57.2785 23.3893 56.684 23.3869C56.0924 23.3845 55.4783 23.3893 54.8418 23.4013L54.8628 19.4047C55.4937 19.3974 56.105 19.3974 56.6966 19.4047C57.2883 19.4095 57.8673 19.4143 58.4337 19.4191L58.4421 6.89381H65.6848ZM44.4278 11.5017L44.2427 5.53385L57.4874 6.87934L57.4916 14.124L46.6107 13.6357C45.862 13.5827 45.3152 13.3861 44.9704 13.0462C44.6227 12.7038 44.4418 12.1889 44.4278 11.5017ZM48.5244 8.85055L48.0786 9.375C48.9254 9.78492 49.8367 10.108 50.8125 10.3443C51.7854 10.5638 52.75 10.7 53.7062 10.753L53.702 10.1309C52.7458 10.0755 51.8359 9.93321 50.9723 9.70414C50.1031 9.46301 49.2871 9.17848 48.5244 8.85055ZM53.9375 18.7392L53.9081 24.5696L46.6696 24.5045L46.7327 18.5836C46.3681 18.5716 45.9994 18.5631 45.6265 18.5583C45.2536 18.5511 44.8764 18.5402 44.4951 18.5258L44.474 14.1963C45.705 14.2638 46.8658 14.3277 47.9566 14.388C49.0474 14.4411 50.1171 14.4905 51.1658 14.5363C52.2173 14.5725 53.2758 14.599 54.3413 14.6159C55.4068 14.6231 56.5312 14.6243 57.7145 14.6195L57.7103 18.6813C57.0625 18.703 56.4303 18.7174 55.8134 18.7247C55.1965 18.7295 54.5712 18.7343 53.9375 18.7392ZM80.267 5.92086L80.187 10.9122L67.2032 12.0117L67.2326 7.46528L69.0328 7.40741C69.0804 7.56414 69.187 7.72931 69.3524 7.90292C69.5179 8.07412 69.7197 8.23085 69.9581 8.37312C70.1992 8.51297 70.4558 8.6251 70.7278 8.70949C70.9998 8.79147 71.2605 8.83005 71.5101 8.82523L71.8382 8.40205C71.1428 8.35624 70.589 8.18986 70.1768 7.90292C69.7618 7.61116 69.5571 7.29287 69.5627 6.94806L69.5711 6.0583L77.9621 5.09259L77.9326 6.4417L80.267 5.92086ZM87.4255 16.3339L87.6526 24.2332L80.9651 24.3598L80.9273 5.09983L87.5854 3.11777L87.4255 10.2467L89.2804 9.96817L89.2678 16.2037L87.4255 16.3339ZM67.199 18.5004C67.1962 16.4243 67.7654 14.863 68.9066 13.8166C70.045 12.7652 71.6741 12.1685 73.7939 12.0262C75.911 11.8212 77.5359 12.1865 78.6687 13.1221C79.8015 14.1011 80.3763 15.7142 80.3931 17.9615C80.4296 20.1968 79.887 21.8931 78.7654 23.0505C77.6382 24.1934 76.0077 24.7806 73.8739 24.8119C71.7344 24.8384 70.0885 24.314 68.936 23.2386C67.7864 22.1776 67.2074 20.5982 67.199 18.5004ZM71.4554 17.3539L71.0096 17.9724C71.8424 18.2882 72.7396 18.5113 73.7014 18.6415C74.6632 18.7717 75.6165 18.8163 76.5615 18.7753L76.5531 18.0773C75.6109 18.1231 74.7137 18.0736 73.8612 17.929C73.006 17.7843 72.2041 17.5926 71.4554 17.3539ZM99.1728 11.6066L99.4673 4.4958L100.599 4.45964L100.834 0L105.705 0.423177L104.544 17.1079L100.17 16.9669L100.266 11.6066H99.1728ZM105.04 17.1369L106.268 0.542535L111.13 1.92419L109.292 16.8005C108.642 16.9645 107.983 17.0742 107.316 17.1296C106.648 17.1923 105.89 17.1947 105.04 17.1369ZM90.1931 7.7257L90.3487 2.30758L99.2654 0.169994L98.9625 6.61169L97.6208 6.69488L97.6166 6.85041C97.5858 7.65095 97.6657 8.27305 97.8564 8.71673C98.047 9.1604 98.3765 9.41479 98.8448 9.47989L98.7228 14.2216C97.8872 14.2361 97.0194 13.954 96.1193 13.3753C95.208 12.8135 94.3374 12.1058 93.5074 11.2522L92.9943 11.8019C93.1989 12.0431 93.4555 12.3047 93.7639 12.5868C94.0724 12.8737 94.4075 13.1076 94.7692 13.2885C94.4523 13.5658 94.0962 13.7997 93.7009 13.9902C93.3027 14.1782 92.8961 14.3362 92.4811 14.464C92.0661 14.5894 91.6553 14.6894 91.2488 14.7642C90.8394 14.8389 90.465 14.8884 90.1258 14.9125L90.1468 10.2792C90.5674 10.149 90.9067 9.85966 91.1646 9.41117C91.4226 8.95544 91.56 8.35986 91.5768 7.62442L91.581 7.48336L90.1931 7.7257ZM90.5211 15.5961L97.3937 15.2742C97.4274 17.466 98.619 18.6101 100.969 18.7066C102.561 18.803 104.064 18.8091 105.478 18.7247C106.871 18.6692 108.102 18.4269 109.17 17.9977L108.762 23.6111C108.216 23.7823 107.669 23.9258 107.122 24.0415C106.573 24.1621 105.994 24.2561 105.385 24.3236C104.768 24.396 104.098 24.443 103.375 24.4647C102.62 24.4912 101.769 24.4985 100.822 24.4864C99.156 24.4768 97.6433 24.3297 96.2833 24.0451C94.9038 23.7654 93.7541 23.288 92.8344 22.6128C91.9203 21.9401 91.2572 21.0371 90.845 19.9038C90.4496 18.7681 90.3417 17.3322 90.5211 15.5961ZM119.597 17.3394L119.134 18.9417L113.322 18.1315L114.108 13.9106C114.52 13.8792 114.927 13.8069 115.328 13.6936C115.732 13.5802 116.106 13.4332 116.451 13.2523C116.799 13.0763 117.095 12.8641 117.338 12.6157C117.585 12.3674 117.748 12.0804 117.826 11.7549C117.953 11.2317 117.919 10.788 117.725 10.4239C117.529 10.0574 117.24 9.8247 116.859 9.72584C115.973 9.49918 115.099 9.44131 114.239 9.55223C113.386 9.67761 112.485 10.0248 111.534 10.5939L112.451 4.239C113.312 3.83632 114.351 3.63016 115.568 3.62052C116.79 3.63981 118.241 3.95448 119.921 4.56453C121.029 4.95756 121.955 5.4374 122.701 6.00405C123.43 6.53694 123.988 7.1265 124.375 7.77271C124.748 8.39482 124.954 9.07359 124.993 9.80903C125.03 10.5348 124.916 11.2992 124.653 12.1021C124.257 13.3054 123.635 14.3627 122.785 15.2742C121.947 16.1953 120.884 16.8837 119.597 17.3394ZM118.979 19.4915L117.465 25L113.515 24.6853C113.109 24.6564 112.81 24.5165 112.619 24.2658C112.426 24.0174 112.367 23.6087 112.443 23.0396L113.116 18.7102L118.979 19.4915Z" fill="#FFA500"/>
</svg>
