<svg width="50" height="50" viewBox="0 0 50 50" fill="none" xmlns="http://www.w3.org/2000/svg">
<path fill-rule="evenodd" clip-rule="evenodd" d="M3.125 25C3.125 30.8016 5.42968 36.3656 9.53204 40.468C13.6344 44.5703 19.1984 46.875 25 46.875C30.8016 46.875 36.3656 44.5703 40.468 40.468C44.5703 36.3656 46.875 30.8016 46.875 25C46.875 19.1984 44.5703 13.6344 40.468 9.53204C36.3656 5.42968 30.8016 3.125 25 3.125C19.1984 3.125 13.6344 5.42968 9.53204 9.53204C5.42968 13.6344 3.125 19.1984 3.125 25ZM37.5014 23.8951C37.2084 23.6021 36.8109 23.4375 36.3965 23.4375H18.2934L25.0028 16.7313C25.2962 16.4379 25.461 16.0399 25.461 15.625C25.461 15.2101 25.2962 14.8121 25.0028 14.5187C24.7094 14.2254 24.3115 14.0605 23.8965 14.0605C23.4816 14.0605 23.0837 14.2254 22.7903 14.5187L13.4153 23.8937C13.2698 24.0389 13.1543 24.2113 13.0756 24.4011C12.9968 24.591 12.9562 24.7945 12.9562 25C12.9562 25.2055 12.9968 25.409 13.0756 25.5989C13.1543 25.7887 13.2698 25.9611 13.4153 26.1063L22.7903 35.4813C22.9356 35.6265 23.108 35.7418 23.2978 35.8204C23.4877 35.899 23.6911 35.9395 23.8965 35.9395C24.102 35.9395 24.3054 35.899 24.4952 35.8204C24.6851 35.7418 24.8575 35.6265 25.0028 35.4813C25.1481 35.336 25.2633 35.1635 25.3419 34.9737C25.4205 34.7839 25.461 34.5804 25.461 34.375C25.461 34.1696 25.4205 33.9661 25.3419 33.7763C25.2633 33.5865 25.1481 33.414 25.0028 33.2687L18.2934 26.5625H36.3965C36.8109 26.5625 37.2084 26.3979 37.5014 26.1049C37.7944 25.8118 37.959 25.4144 37.959 25C37.959 24.5856 37.7944 24.1882 37.5014 23.8951Z" fill="white"/>
<path fill-rule="evenodd" clip-rule="evenodd" d="M9.53204 40.468C5.42968 36.3656 3.125 30.8016 3.125 25C3.125 19.1984 5.42968 13.6344 9.53204 9.53204C13.6344 5.42968 19.1984 3.125 25 3.125C30.8016 3.125 36.3656 5.42968 40.468 9.53204C44.5703 13.6344 46.875 19.1984 46.875 25C46.875 30.8016 44.5703 36.3656 40.468 40.468C36.3656 44.5703 30.8016 46.875 25 46.875C19.1984 46.875 13.6344 44.5703 9.53204 40.468ZM42.6777 42.6777C47.3661 37.9893 50 31.6304 50 25C50 18.3696 47.3661 12.0107 42.6777 7.32233C37.9893 2.63392 31.6304 0 25 0C18.3696 0 12.0107 2.63392 7.32233 7.32233C2.63392 12.0107 0 18.3696 0 25C0 31.6304 2.63392 37.9893 7.32233 42.6777C12.0107 47.3661 18.3696 50 25 50C31.6304 50 37.9893 47.3661 42.6777 42.6777Z" fill="white"/>
<path d="M36.3965 23.4375C36.8109 23.4375 37.2084 23.6021 37.5014 23.8951C37.7944 24.1882 37.959 24.5856 37.959 25C37.959 25.4144 37.7944 25.8118 37.5014 26.1049C37.2084 26.3979 36.8109 26.5625 36.3965 26.5625H18.2934L25.0028 33.2687C25.1481 33.414 25.2633 33.5865 25.3419 33.7763C25.4205 33.9661 25.461 34.1696 25.461 34.375C25.461 34.5804 25.4205 34.7839 25.3419 34.9737C25.2633 35.1635 25.1481 35.336 25.0028 35.4813C24.8575 35.6265 24.6851 35.7418 24.4952 35.8204C24.3054 35.899 24.102 35.9395 23.8965 35.9395C23.6911 35.9395 23.4877 35.899 23.2978 35.8204C23.108 35.7418 22.9356 35.6265 22.7903 35.4813L13.4153 26.1063C13.2698 25.9611 13.1543 25.7887 13.0756 25.5989C12.9968 25.409 12.9562 25.2055 12.9562 25C12.9562 24.7945 12.9968 24.591 13.0756 24.4011C13.1543 24.2113 13.2698 24.0389 13.4153 23.8937L22.7903 14.5187C23.0837 14.2254 23.4816 14.0605 23.8965 14.0605C24.3115 14.0605 24.7094 14.2254 25.0028 14.5187C25.2962 14.8121 25.461 15.2101 25.461 15.625C25.461 16.0399 25.2962 16.4379 25.0028 16.7313L18.2934 23.4375H36.3965Z" fill="black"/>
</svg>
