<svg width="19" height="19" viewBox="0 0 19 19" fill="none" xmlns="http://www.w3.org/2000/svg">
<g clip-path="url(#clip0_393_386)">
<path d="M17.3865 10.1927C17.2339 11.9976 16.4687 13.696 15.2181 15.0062C13.9674 16.3164 12.3064 17.1597 10.5105 17.396C8.71472 17.6324 6.89206 17.2477 5.34496 16.3057C3.79785 15.3638 2.61929 13.9212 2.00481 12.2173C1.39033 10.5134 1.37686 8.65063 1.96664 6.93803C2.55642 5.22544 3.71399 3.76595 5.24732 2.80172C6.78064 1.83748 8.59754 1.42646 10.3966 1.63683C12.1956 1.84721 13.8687 2.66634 15.1382 3.95833H12.6666C12.4566 3.95833 12.2553 4.04174 12.1068 4.19021C11.9583 4.33867 11.8749 4.54004 11.8749 4.75C11.8749 4.95996 11.9583 5.16133 12.1068 5.30979C12.2553 5.45826 12.4566 5.54167 12.6666 5.54167H15.9465C16.3363 5.54146 16.7101 5.3865 16.9858 5.11085C17.2614 4.83519 17.4164 4.46138 17.4166 4.07154V0.791667C17.4166 0.581704 17.3332 0.38034 17.1847 0.231874C17.0362 0.0834075 16.8349 0 16.6249 0V0C16.415 0 16.2136 0.0834075 16.0651 0.231874C15.9167 0.38034 15.8333 0.581704 15.8333 0.791667V2.43675C14.241 1.01391 12.2152 0.1698 10.0837 0.0409381C7.95225 -0.0879235 5.83961 0.505999 4.08749 1.72665C2.33538 2.9473 1.04626 4.7233 0.428615 6.76742C-0.189027 8.81153 -0.0990709 11.0042 0.683934 12.9909C1.46694 14.9775 2.89721 16.642 4.74342 17.715C6.58963 18.788 8.74383 19.2069 10.8576 18.9039C12.9714 18.6009 14.9211 17.5937 16.3915 16.0452C17.8619 14.4967 18.767 12.4975 18.9603 10.3708C18.9706 10.2606 18.9577 10.1494 18.9226 10.0444C18.8875 9.93941 18.8309 9.84287 18.7564 9.76095C18.6819 9.67902 18.5912 9.61351 18.49 9.56858C18.3888 9.52365 18.2794 9.5003 18.1687 9.5C17.9755 9.49767 17.7885 9.56732 17.6439 9.69537C17.4993 9.82342 17.4075 10.0007 17.3865 10.1927Z" fill="black"/>
</g>
<defs>
<clipPath id="clip0_393_386">
<rect width="19" height="19" rx="9.5" fill="white"/>
</clipPath>
</defs>
</svg>
