<svg width="80" height="134" viewBox="0 0 80 134" fill="none" xmlns="http://www.w3.org/2000/svg">
<path d="M35.3333 108L58.8332 84.5L54.1668 79.8333L35.3333 98.6668L25.8333 89.1667L21.1667 93.8333L35.3333 108ZM16.6667 124C14.8333 124 13.2639 123.347 11.9583 122.042C10.6528 120.736 10 119.167 10 117.333V70.6667C10 68.8333 10.6528 67.2639 11.9583 65.9583C13.2639 64.6528 14.8333 64 16.6667 64H63.3332C65.1668 64 66.736 64.6528 68.0416 65.9583C69.3472 67.2639 70 68.8333 70 70.6667V117.333C70 119.167 69.3472 120.736 68.0416 122.042C66.736 123.347 65.1668 124 63.3332 124H16.6667Z" fill="#0099FF"/>
<path d="M16.2047 55.1263L9.98246 56.5038L10.7398 59.49L12.9298 58.9143L13.9123 61.6692L11.5063 62.5125L13.301 69.5895C13.9892 70.1848 14.4929 70.3201 15.5497 70.2782C16.3452 70.0375 16.6208 69.7273 16.8596 68.9008C17.5039 69.2673 17.6746 69.4222 18.8246 69.5895C19.8782 69.7144 20.5525 69.438 20.8964 68.5564L17.8889 59.9474L16.6859 56.5038L16.2047 55.1263Z" fill="#374957"/>
<path d="M13.9123 61.6692L12.9298 58.9143L10.7398 59.49L9 59.9474L9.98246 63.0466L11.5063 62.5125L13.9123 61.6692Z" fill="#FFC04C"/>
<path d="M58.4503 41.0076V39.6301L55.271 40.9146L54.5205 42.8426L58.4503 41.0076Z" fill="#FFC04C"/>
<path d="M16.6859 56.5038L17.8889 59.9474L32.2515 53.2409L38.0451 50.5356L40.7661 49.2651L47.6433 46.0538L47.7724 45.5427L48.2223 43.7625L47.6053 44.0117L46.9883 44.261L42.076 46.682L37.8187 47.9657L37.1419 48.2391L36.0175 48.6934L35.5263 49.9609L34.7076 50.3053L32.2515 51.3384L31.269 50.6119L16.6859 56.5038Z" fill="#FFC04C"/>
<path d="M35.5767 53.4045L38.1462 51.6827L38.0451 50.5356L32.2515 53.2409L35.5767 53.4045Z" fill="#FF0000"/>
<path d="M35.5263 49.9609L36.0175 48.6934L35.1988 48.2391L33.5614 48.5835L32.6881 48.6934L32.5789 49.2651H32.9064H33.2339L35.1988 48.9279L34.7076 50.3053L35.5263 49.9609Z" fill="#FF0000"/>
<path d="M35.1988 48.2391L36.0175 48.6934L37.1419 48.2391L37.1637 47.2061L32.9064 47.5504L32.6881 48.6934L33.5614 48.5835L35.1988 48.2391Z" fill="#FF0000"/>
<path d="M37.1637 44.7955H32.9064H31.5965L31.924 48.2391L31.269 50.6119L32.2515 51.3384L34.7076 50.3053L35.1988 48.9279L33.2339 49.2651H32.9064H32.5789L32.6881 48.6934L32.9064 47.5504L37.1637 47.2061L37.1419 48.2391L37.8187 47.9657L38.1462 44.7955H37.1637Z" fill="white"/>
<path d="M45.0234 63.0466L43.0585 65.4572C46.8733 65.9636 48.9467 65.6802 52.5556 64.4241L49.3717 55.8151L41.8918 56.8481L45.0234 63.0466Z" fill="#331908"/>
<path d="M58.4503 61.6692L55.8304 64.4241C58.1409 65.5524 60.5097 65.232 65 64.4241L61.8161 55.8151L55.5029 56.8481L58.4503 61.6692Z" fill="#331908"/>
<path d="M40.7661 31.0211H34.2164L35.5767 34.1204L36.1813 35.4978C37.0796 35.5841 37.5824 35.5321 38.4737 35.1534L40.7661 34.4647V31.0211Z" fill="white"/>
<path d="M36.1813 35.4978L35.5767 34.1204H34.2416C34.0905 38.248 33.7819 40.5861 32.9064 44.7955H37.1637C37.4832 41.1494 37.0966 40.1965 38.4737 35.1534C37.5824 35.5321 37.0796 35.5841 36.1813 35.4978Z" fill="#FBE6C7"/>
<path d="M50.0856 27.5775C50.6248 29.3806 50.7995 30.359 50.9181 32.0542L50.0856 32.3986L51.2456 34.8091L50.0856 39.1018L54.848 40.1717L55.8304 37.3182L56.8129 34.4647L55.5029 27.5775H50.0856Z" fill="#FBE6C7"/>
<path fill-rule="evenodd" clip-rule="evenodd" d="M27.0117 21.7234L25.3743 22.3332L29.9591 29.6437L31.5965 30.6767L32.9064 31.0211H34.2164H40.7661L45.0234 26.0178L46.3333 24.4783C46.6357 22.4604 46.637 21.3306 46.3333 19.3129L47.807 18.1076C48.3106 17.7934 48.5674 17.5492 48.9532 16.9023C48.7575 15.3481 48.5319 14.5196 47.9708 13.1144C46.7827 12.8147 46.1503 12.8197 45.0234 13.1144C44.0288 13.918 43.591 14.4422 43.0585 15.5249L42.076 14.1475L37.1637 16.6179L38.8012 16.9023L35.5263 20.346L34.8713 20.0016L37.1637 16.6179C33.2583 19.1116 31.029 20.1882 27.0117 21.7234ZM27.9942 21.379H32.2515L31.5965 22.3332L27.6667 22.7565L27.9942 21.379ZM30.9415 23.7896C31.1763 23.6978 31.3209 23.6917 31.5965 23.7896C32.0057 23.9364 32.2195 24.0807 32.5789 24.4783C32.6862 24.7679 32.6951 24.9203 32.5789 25.167C32.1977 25.422 31.9836 25.4915 31.5965 25.5114C31.2676 25.5073 31.1339 25.4152 30.9415 25.167C30.6461 24.6291 30.6923 24.3274 30.9415 23.7896ZM37.1637 21.379C37.2326 21.0864 37.3797 20.9361 37.8187 20.6903C38.2564 20.7602 38.4724 20.9026 38.8012 21.379C38.9437 21.7527 38.9295 21.9595 38.8012 22.3332C38.5588 22.6013 38.4129 22.6768 38.1462 22.7565C37.7188 22.7491 37.5086 22.6422 37.1637 22.3332C37.099 21.9827 37.1056 21.7724 37.1637 21.379Z" fill="#FBE6C7"/>
<path d="M37.1637 16.6179L34.8713 20.0016L35.5263 20.346L38.8012 16.9023L37.1637 16.6179Z" fill="black"/>
<path d="M32.2515 21.379H27.9942L27.6667 22.7565L31.5965 22.3332L32.2515 21.379Z" fill="black"/>
<path d="M37.8187 20.6903C37.3797 20.9361 37.2326 21.0864 37.1637 21.379C37.1056 21.7724 37.099 21.9827 37.1637 22.3332C37.5086 22.6422 37.7188 22.7491 38.1462 22.7565C38.4129 22.6768 38.5588 22.6013 38.8012 22.3332C38.9295 21.9595 38.9437 21.7527 38.8012 21.379C38.4724 20.9026 38.2564 20.7602 37.8187 20.6903Z" fill="black"/>
<path d="M31.5965 23.7896C31.3209 23.6917 31.1763 23.6978 30.9415 23.7896C30.6923 24.3274 30.6461 24.6291 30.9415 25.167C31.1339 25.4152 31.2676 25.5073 31.5965 25.5114C31.9836 25.4915 32.1977 25.422 32.5789 25.167C32.6951 24.9203 32.6862 24.7679 32.5789 24.4783C32.2195 24.0807 32.0057 23.9364 31.5965 23.7896Z" fill="black"/>
<path d="M45.0234 13.1144C46.1503 12.8197 46.7827 12.8147 47.9708 13.1144L46.3333 10.5102C44.9153 12.326 43.9634 13.0914 42.076 14.1475L43.0585 15.5249C43.591 14.4422 44.0288 13.918 45.0234 13.1144Z" fill="black"/>
<path d="M58.4503 39.6301V41.0076L54.5205 42.8426V44.7955L53.2105 46.1151L52.5556 46.7749C52.0222 48.826 52.0825 49.9759 52.5556 52.0271L55.5029 56.8481L61.8161 55.8151L60.4152 52.0271C60.4855 48.7602 60.9405 46.7346 62.3801 42.8426C63.5489 39.9742 63.3528 38.3662 62.3801 35.4978L55.8304 37.3182L54.848 40.1717L55.5029 40.3189L55.271 40.9146L58.4503 39.6301Z" fill="#75A87D"/>
<path d="M40.7661 49.2651C39.8711 50.1419 39.5997 50.7548 39.4561 52.0271L41.8918 56.8481L49.3717 55.8151L47.9708 52.0271C48.9196 49.7454 49.5363 48.5256 51.2456 46.7749H48.2223L47.6433 46.0538L40.7661 49.2651Z" fill="#75A87D"/>
<path d="M46.3333 40.9146C44.5686 43.0142 43.6082 44.2347 42.076 46.682L46.9883 44.261V42.8426L47.6433 42.3457L48.9532 41.3519L49.2521 39.6301L46.3333 40.9146Z" fill="#75A87D"/>
<path d="M46.9883 42.8426V44.261L47.6053 44.0117C47.3927 43.361 47.3837 42.9965 47.6433 42.3457L46.9883 42.8426Z" fill="#FF0000"/>
<path fill-rule="evenodd" clip-rule="evenodd" d="M48.2223 43.7625L47.7724 45.5427C49.1319 46.0279 50.2942 46.163 53.2105 46.1151L54.5205 44.7955V42.8426L55.271 40.9146L55.5029 40.3189L54.848 40.1717L50.0856 39.1018L49.3717 38.9414L49.2521 39.6301L48.9532 41.3519L47.6433 42.3457C47.3837 42.9965 47.3927 43.361 47.6053 44.0117L48.2223 43.7625Z" fill="white"/>
<path d="M51.2456 46.7749H52.5556L53.2105 46.1151C50.2942 46.163 49.1319 46.0279 47.7724 45.5427L47.6433 46.0538L48.2223 46.7749H51.2456Z" fill="#FF0000"/>
<path d="M40.7661 31.0211V34.4647L43.386 37.9083L46.3333 40.9146L49.2521 39.6301L49.3717 38.9414L50.0856 39.1018L51.2456 34.8091L50.0856 32.3986C48.5788 32.6694 47.7621 32.65 46.3333 32.3986C45.5619 29.968 45.2822 28.5692 45.0234 26.0178L40.7661 31.0211Z" fill="#202529" fill-opacity="0.77"/>
<path d="M62.3801 35.4978C61.0124 31.2536 59.9897 28.8553 56.8129 24.4783C55.142 22.3654 54.2127 21.4525 52.5556 20.346C50.3433 19.3724 49.3632 19.1523 48.097 19.3129C49.0946 22.6589 49.5278 24.4672 50.0856 27.5775H55.5029L56.8129 34.4647L55.8304 37.3182L62.3801 35.4978Z" fill="#202529" fill-opacity="0.77"/>
<path d="M34.2164 31.0211H32.9064V34.1204H34.2416H35.5767L34.2164 31.0211Z" fill="#202529" fill-opacity="0.77"/>
<path d="M22.0994 19.3129L43.0585 7.94898L42.076 6.97329L21.8171 17.5911L22.0994 19.3129Z" fill="#F64F4F"/>
<path d="M22.0994 19.3129L11.2924 27.5775C16.8534 26.584 20.1553 25.4973 25.3743 22.3332L27.0117 21.7234C31.029 20.1882 33.2583 19.1116 37.1637 16.6179L42.076 14.1475C43.9634 13.0914 44.9153 12.326 46.3333 10.5102C49.8208 8.65712 50.7475 7.40134 52.5556 5.1941L43.0585 7.94898L22.0994 19.3129Z" fill="#FFC04C" fill-opacity="0.69"/>
<path d="M21.5348 15.8693L21.8171 17.5911L42.076 6.97329L41.0936 5.99761L21.5348 15.8693Z" fill="#FFC04C"/>
<path d="M37.1637 2.09485C33.3472 0.618853 31.1163 0.651334 27.0117 2.09485C23.6 3.70578 21.9512 5.7135 20.462 9.32642L20.7443 11.0482L21.1395 13.4587L39.591 4.50538L37.8187 2.74531L37.1637 2.09485Z" fill="#FFC04C" fill-opacity="0.69"/>
<path d="M39.591 4.50538L21.1395 13.4587L21.5348 15.8693L41.0936 5.99761L39.591 4.50538Z" fill="#DCAE5A"/>
<path d="M13.9123 72H22.0994L20.8964 68.5564C20.5525 69.438 19.8782 69.7144 18.8246 69.5895C17.6746 69.4222 17.5039 69.2673 16.8596 68.9008C16.6208 69.7273 16.3452 70.0375 15.5497 70.2782C14.4929 70.3201 13.9892 70.1848 13.301 69.5895L13.9123 72Z" fill="white"/>
<path d="M16.6859 56.5038L16.2047 55.1263L9.98246 56.5038L10.7398 59.49M16.6859 56.5038L17.8889 59.9474M16.6859 56.5038L31.269 50.6119M17.8889 59.9474L32.2515 53.2409M17.8889 59.9474L20.8964 68.5564M22.0994 19.3129L11.2924 27.5775C16.8534 26.584 20.1553 25.4973 25.3743 22.3332M22.0994 19.3129L43.0585 7.94898M22.0994 19.3129L21.8171 17.5911M42.076 14.1475L43.0585 15.5249C43.591 14.4422 44.0288 13.918 45.0234 13.1144C46.1503 12.8197 46.7828 12.8147 47.9708 13.1144M42.076 14.1475C43.9634 13.0914 44.9153 12.326 46.3333 10.5102M42.076 14.1475L37.1637 16.6179M43.0585 7.94898L52.5556 5.1941C50.7475 7.40134 49.8208 8.65712 46.3333 10.5102M43.0585 7.94898L42.076 6.97329M25.3743 22.3332L27.0117 21.7234C31.029 20.1882 33.2583 19.1116 37.1637 16.6179M25.3743 22.3332L29.9591 29.6437L31.5965 30.6767L32.9064 31.0211M40.7661 31.0211H34.2164M40.7661 31.0211V34.4647M40.7661 31.0211L45.0234 26.0178M47.9708 13.1144C48.5319 14.5196 48.7575 15.3481 48.9532 16.9023C48.5674 17.5492 48.3106 17.7934 47.807 18.1076M47.9708 13.1144L46.3333 10.5102M34.2164 31.0211H32.9064M34.2164 31.0211L35.5767 34.1204M40.7661 34.4647L38.4737 35.1534M40.7661 34.4647L43.386 37.9083L46.3333 40.9146M45.0234 26.0178L46.3333 24.4783C46.6357 22.4604 46.637 21.3306 46.3333 19.3129L47.807 18.1076M45.0234 26.0178C45.2822 28.5692 45.5619 29.968 46.3333 32.3986C47.7621 32.65 48.5788 32.6694 50.0856 32.3986M47.807 18.1076L48.097 19.3129M46.3333 40.9146C44.5686 43.0142 43.6082 44.2347 42.076 46.682M46.3333 40.9146L49.2521 39.6301M42.076 46.682L37.8187 47.9657M42.076 46.682L46.9883 44.261M40.7661 49.2651C39.8711 50.1419 39.5997 50.7548 39.4561 52.0271L41.8918 56.8481M40.7661 49.2651L47.6433 46.0538M40.7661 49.2651L38.0451 50.5356M51.2456 46.7749C49.5363 48.5256 48.9196 49.7454 47.9708 52.0271L49.3717 55.8151M51.2456 46.7749H52.5556M51.2456 46.7749H48.2223L47.6433 46.0538M52.5556 46.7749C52.0222 48.826 52.0825 49.9759 52.5556 52.0271L55.5029 56.8481M52.5556 46.7749L53.2105 46.1151M54.5205 42.8426L58.4503 41.0076V39.6301L55.271 40.9146M54.5205 42.8426V44.7955L53.2105 46.1151M54.5205 42.8426L55.271 40.9146M62.3801 35.4978C63.3528 38.3662 63.5489 39.9742 62.3801 42.8426C60.9405 46.7346 60.4855 48.7602 60.4152 52.0271L61.8161 55.8151M62.3801 35.4978C61.0124 31.2536 59.9897 28.8553 56.8129 24.4783C55.142 22.3654 54.2127 21.4525 52.5556 20.346C50.3433 19.3724 49.3632 19.1523 48.097 19.3129M62.3801 35.4978L55.8304 37.3182M48.097 19.3129C49.0946 22.6589 49.5278 24.4672 50.0856 27.5775M50.0856 27.5775C50.6248 29.3806 50.7995 30.359 50.9181 32.0542L50.0856 32.3986M50.0856 27.5775H55.5029M51.2456 21.7234L55.8304 27.5775H55.5029M32.9064 31.0211V34.1204H34.2416M35.5767 34.1204L36.1813 35.4978C37.0796 35.5841 37.5824 35.5321 38.4737 35.1534M35.5767 34.1204H34.2416M34.2416 34.1204C34.0905 38.248 33.7819 40.5861 32.9064 44.7955M32.9064 44.7955H37.1637M32.9064 44.7955H31.5965L31.924 48.2391L31.269 50.6119M37.1637 44.7955C37.4832 41.1494 37.0966 40.1965 38.4737 35.1534M37.1637 44.7955H38.1462L37.8187 47.9657M31.269 50.6119L32.2515 51.3384L34.7076 50.3053M36.0175 48.6934L35.5263 49.9609L34.7076 50.3053M36.0175 48.6934L35.1988 48.2391L33.5614 48.5835L32.6881 48.6934M36.0175 48.6934L37.1419 48.2391M37.8187 47.9657L37.1419 48.2391M32.2515 53.2409L35.5767 53.4045L38.1462 51.6827L38.0451 50.5356M32.2515 53.2409L38.0451 50.5356M20.8964 68.5564L22.0994 72H13.9123L13.301 69.5895M20.8964 68.5564C20.5525 69.4379 19.8782 69.7144 18.8246 69.5895C17.6746 69.4222 17.5039 69.2672 16.8596 68.9008C16.6208 69.7273 16.3452 70.0375 15.5497 70.2782C14.4929 70.3201 13.9892 70.1848 13.301 69.5895M13.301 69.5895L11.5063 62.5125M41.8918 56.8481L45.0234 63.0466L43.0585 65.4572C46.8733 65.9636 48.9467 65.6802 52.5556 64.4241L49.3717 55.8151M41.8918 56.8481L49.3717 55.8151M55.5029 56.8481L58.4503 61.6692L55.8304 64.4241C58.1409 65.5524 60.5097 65.232 65 64.4241L61.8161 55.8151M55.5029 56.8481L61.8161 55.8151M46.9883 44.261V42.8426L47.6433 42.3457M46.9883 44.261L47.6053 44.0117M48.2223 43.7625L47.6053 44.0117M48.2223 43.7625L47.7724 45.5427M48.2223 43.7625C48.0429 44.4725 47.926 44.935 47.7724 45.5427M47.6433 46.0538L47.7724 45.5427M47.6433 46.0538C47.69 45.869 47.7324 45.7009 47.7724 45.5427M50.0856 32.3986L51.2456 34.8091L50.0856 39.1018M50.0856 39.1018L49.3717 38.9414L49.2521 39.6301M50.0856 39.1018L54.848 40.1717M54.848 40.1717L55.5029 40.3189L55.271 40.9146M54.848 40.1717L55.8304 37.3182M55.5029 27.5775L56.8129 34.4647L55.8304 37.3182M38.1462 29.2993C38.4723 29.5772 38.6671 29.7036 39.1287 29.6437C39.7354 29.596 40.0235 29.4484 40.4386 28.955C40.6806 28.3722 40.6592 28.0744 40.4386 27.5775M35.5263 26.2001L35.1988 27.2332H36.5088M37.1637 16.6179L34.8713 20.0016L35.5263 20.346L38.8012 16.9023L37.1637 16.6179ZM21.1395 13.4587L20.7443 11.0482L20.462 9.32642C21.9512 5.7135 23.6 3.70578 27.0117 2.09485C31.1163 0.651334 33.3472 0.618853 37.1637 2.09485L37.8187 2.74531L39.591 4.50538M21.1395 13.4587L39.591 4.50538M21.1395 13.4587L21.5348 15.8693M39.591 4.50538L41.0936 5.99761M21.5348 15.8693L21.8171 17.5911M21.5348 15.8693L41.0936 5.99761M41.0936 5.99761L42.076 6.97329M10.7398 59.49L12.9298 58.9143L13.9123 61.6692L11.5063 62.5125M10.7398 59.49L9 59.9474L9.98246 63.0466L11.5063 62.5125M34.7076 50.3053L35.1988 48.9279L33.2339 49.2651H32.9064H32.5789L32.6881 48.6934M37.1419 48.2391L37.1637 47.2061L32.9064 47.5504L32.6881 48.6934M49.2521 39.6301L48.9532 41.3519L47.6433 42.3457M47.6433 42.3457C47.3837 42.9965 47.3927 43.361 47.6053 44.0117M53.2105 46.1151C50.2942 46.163 49.1319 46.0279 47.7724 45.5427M21.8171 17.5911L42.076 6.97329M32.2515 21.379H27.9942L27.6667 22.7565L31.5965 22.3332L32.2515 21.379ZM31.5965 23.7896C31.3209 23.6917 31.1763 23.6978 30.9415 23.7896C30.6923 24.3274 30.6461 24.6291 30.9415 25.167C31.1339 25.4152 31.2676 25.5073 31.5965 25.5114C31.9836 25.4915 32.1977 25.422 32.5789 25.167C32.6951 24.9203 32.6862 24.7679 32.5789 24.4783C32.2195 24.0807 32.0057 23.9364 31.5965 23.7896ZM37.8187 20.6903C37.3797 20.9361 37.2326 21.0864 37.1637 21.379C37.1056 21.7724 37.099 21.9827 37.1637 22.3332C37.5086 22.6422 37.7188 22.7491 38.1462 22.7565C38.4129 22.6768 38.5588 22.6013 38.8012 22.3332C38.9295 21.9595 38.9437 21.7527 38.8012 21.379C38.4724 20.9026 38.2564 20.7602 37.8187 20.6903Z" stroke="black" stroke-opacity="0.29" stroke-width="0.2"/>
</svg>
