<svg width="24" height="24" viewBox="0 0 24 24" fill="none" xmlns="http://www.w3.org/2000/svg">
<g clip-path="url(#clip0_137_238)">
<path d="M11.8298 24C11.6982 24.0007 11.5677 23.9755 11.4459 23.9258C11.3241 23.876 11.2132 23.8027 11.1198 23.71C11.0261 23.617 10.9517 23.5064 10.9009 23.3846C10.8501 23.2627 10.824 23.132 10.824 23C10.824 22.868 10.8501 22.7373 10.9009 22.6154C10.9517 22.4935 11.0261 22.3829 11.1198 22.29L19.2898 14.12C19.8516 13.5575 20.1672 12.795 20.1672 12C20.1672 11.205 19.8516 10.4425 19.2898 9.87998L11.1198 1.70999C11.0266 1.61675 10.9526 1.50606 10.9021 1.38423C10.8517 1.26241 10.8257 1.13184 10.8257 0.999985C10.8257 0.733683 10.9315 0.478289 11.1198 0.289985C11.3081 0.101681 11.5635 -0.00410652 11.8298 -0.00410652C12.0961 -0.00410652 12.3515 0.101681 12.5398 0.289985L20.7098 8.45998C21.1754 8.92444 21.5449 9.4762 21.7969 10.0836C22.049 10.6911 22.1787 11.3423 22.1787 12C22.1787 12.6577 22.049 13.3089 21.7969 13.9163C21.5449 14.5238 21.1754 15.0755 20.7098 15.54L12.5398 23.71C12.4464 23.8027 12.3355 23.876 12.2137 23.9258C12.0919 23.9755 11.9614 24.0007 11.8298 24Z" fill="black"/>
<path d="M1.82996 24C1.69835 24.0007 1.56789 23.9755 1.44605 23.9258C1.32421 23.876 1.2134 23.8027 1.11996 23.71C1.02623 23.617 0.951833 23.5064 0.901065 23.3846C0.850296 23.2627 0.824158 23.132 0.824158 23C0.824158 22.868 0.850296 22.7373 0.901065 22.6154C0.951833 22.4935 1.02623 22.3829 1.11996 22.29L10.71 12.71C10.8037 12.617 10.8781 12.5064 10.9288 12.3846C10.9796 12.2627 11.0058 12.132 11.0058 12C11.0058 11.868 10.9796 11.7373 10.9288 11.6154C10.8781 11.4935 10.8037 11.3829 10.71 11.29L1.11996 1.70999C0.931652 1.52168 0.825864 1.26629 0.825864 0.999985C0.825864 0.733683 0.931652 0.478289 1.11996 0.289985C1.30826 0.101681 1.56365 -0.00410652 1.82996 -0.00410652C2.09626 -0.00410652 2.35165 0.101681 2.53996 0.289985L12.12 9.87998C12.6818 10.4425 12.9973 11.205 12.9973 12C12.9973 12.795 12.6818 13.5575 12.12 14.12L2.53996 23.71C2.44652 23.8027 2.3357 23.876 2.21386 23.9258C2.09203 23.9755 1.96156 24.0007 1.82996 24Z" fill="black"/>
</g>
<defs>
<clipPath id="clip0_137_238">
<rect width="24" height="24" fill="white"/>
</clipPath>
</defs>
</svg>
