<svg width="109" height="129" viewBox="0 0 109 129" fill="none" xmlns="http://www.w3.org/2000/svg">
<path d="M49.15 56.2501H36.984C41.6105 59.0274 41.9763 60.2971 48.8073 63.1008C51.6124 64.2521 53.8308 62.8871 53.9479 61.9899L49.15 56.2501Z" fill="#FBE6C7"/>
<path d="M44.6949 16.442L17.4498 10.8874C18.9124 13.4049 19.3959 14.9637 19.8488 17.9232C19.6533 23.9456 19.1336 27.1907 17.4498 32.7356C14.6178 38.5396 12.8649 41.7071 9.39627 47.1776L23.4472 55.1392C28.7275 56.6822 31.6913 56.9537 36.984 56.2501H49.15L58.2317 58.2868C58.2317 58.2868 73.6122 67.3581 76.5664 66.989C79.5206 66.6199 81.8719 67.1215 82.9065 64.582L65.0858 47.733L55.1474 39.2159C56.1755 39.2159 57.0322 39.2159 58.2317 38.9972C58.6919 38.8852 59.1564 38.7538 59.6201 38.6226C60.307 38.4283 61.6588 37.9199 61.6588 37.9199C63.9517 36.9426 65.5704 36.3642 66.9443 35.6204C66.9802 35.6009 67.016 35.5814 67.0517 35.562C68.9609 34.52 70.4107 33.5066 72.5857 31.9864L72.5864 31.9859C73.0727 31.6459 73.5954 31.2806 74.1675 30.884L78.1086 33.291L98.3282 40.3269C100.384 40.8823 102.955 41.9933 106.724 41.2526C108.781 40.3269 108.029 38.2462 106.724 36.9941L82.3924 22.3669L81.1929 21.8115C78.6227 21.0709 65.3186 20.7119 55.1474 19.5896L44.6949 16.442Z" fill="#FBE6C7"/>
<path d="M9.39627 47.1776C12.8649 41.7071 14.6178 38.5396 17.4498 32.7356C19.1336 27.1907 19.6533 23.9456 19.8488 17.9232C19.3959 14.9637 18.9124 13.4049 17.4498 10.8874C17.0571 9.82315 16.5439 9.12519 15.2223 7.73977C11.4195 5.52653 9.20396 4.51706 5.11246 3.11092L1 2C1 22.9691 1 29.3561 1 50.3252L6.14058 50.3252C7.65924 49.4379 8.36273 48.7358 9.39627 47.1776Z" fill="#C7DCCB"/>
<path d="M74.6815 50.5103C76.6952 49.829 77.0008 49.6027 76.5664 47.733L66.9443 35.6204C65.5704 36.3642 63.9517 36.9426 61.6588 37.9199C61.6588 37.9199 60.307 38.4283 59.6201 38.6226C59.1564 38.7538 58.6919 38.8852 58.2317 38.9972L70.8246 48.7982C72.454 50.14 73.6534 50.3252 74.6815 50.5103Z" fill="#FBE6C7"/>
<path d="M89.9319 45.326L78.1086 33.291L74.1675 30.884C73.5954 31.2806 73.0727 31.6459 72.5864 31.9859L72.5857 31.9864C70.4107 33.5066 68.9609 34.52 67.0517 35.562L84.2773 49.1855C84.6218 49.2871 84.9445 49.4051 85.2663 49.5229C86.4684 49.9627 87.6585 50.3981 89.9319 49.9549C91.5587 48.1472 91.4131 47.1337 89.9319 45.326Z" fill="#FBE6C7"/>
<path d="M17.4498 10.8874L44.6949 16.442L55.1474 19.5896C65.3186 20.7119 78.6226 21.0709 81.1929 21.8115L82.3924 22.3669L106.724 36.9941C108.029 38.2462 108.781 40.3269 106.724 41.2526C102.955 41.9933 100.384 40.8823 98.3282 40.3269L78.1086 33.291M17.4498 10.8874C18.9124 13.4049 19.3959 14.9637 19.8488 17.9232C19.6533 23.9456 19.1336 27.1907 17.4498 32.7356C14.6178 38.5396 12.8649 41.7071 9.39627 47.1776M17.4498 10.8874C17.0571 9.82315 16.5439 9.12519 15.2223 7.73977C11.4195 5.52653 9.20396 4.51706 5.11246 3.11092L1 2C1 22.9691 1 29.3561 1 50.3252L6.14058 50.3252C7.65924 49.4379 8.36273 48.7358 9.39627 47.1776M78.1086 33.291L89.9319 45.326C91.4131 47.1337 91.5587 48.1472 89.9319 49.9549C87.6585 50.3981 86.4684 49.9627 85.2663 49.5229C84.9445 49.4051 84.6218 49.2871 84.2773 49.1855L67.0517 35.562M78.1086 33.291L74.1675 30.884C73.5954 31.2806 73.0727 31.6459 72.5864 31.9859L72.5857 31.9864C70.4107 33.5066 68.9609 34.52 67.0517 35.562M67.0517 35.562L66.9443 35.6204M67.0517 35.562C67.016 35.5814 66.9802 35.6009 66.9443 35.6204M49.15 56.2501L58.2317 58.2868C58.2317 58.2868 73.6122 67.3581 76.5664 66.989C79.5206 66.62 81.8719 67.1215 82.9065 64.582L65.0858 47.733L55.1474 39.2159M49.15 56.2501H36.984M49.15 56.2501L53.9479 61.9899C53.8308 62.8871 51.6124 64.2521 48.8073 63.1008C41.9763 60.2971 41.6105 59.0274 36.984 56.2501M9.39627 47.1776L23.4472 55.1392C28.7275 56.6822 31.6913 56.9537 36.984 56.2501M47.0938 32.7356L55.1474 39.2159M55.1474 39.2159C56.1755 39.2159 57.0322 39.2159 58.2317 38.9972M58.2317 38.9972C58.6919 38.8852 59.1564 38.7538 59.6201 38.6226C60.307 38.4283 61.6588 37.9199 61.6588 37.9199C63.9517 36.9426 65.5704 36.3642 66.9443 35.6204M58.2317 38.9972L70.8246 48.7982C72.454 50.14 73.6534 50.3252 74.6815 50.5103C76.6952 49.829 77.0008 49.6027 76.5664 47.733L66.9443 35.6204" stroke="#F4F4F4" stroke-opacity="0.866667" stroke-width="2"/>
<path fill-rule="evenodd" clip-rule="evenodd" d="M38.4921 111.869C48.2925 119.17 61.5434 118.942 71.6409 112.018C81.9284 104.964 87.9595 92.4272 84.2076 80.5215C80.6151 69.1218 68.3853 64.1973 56.4728 63.8857C44.4063 63.5701 31.6221 67.6847 27.369 79.0348C22.8804 91.0128 28.2723 104.255 38.4921 111.869Z" fill="#FFC04C"/>
<path fill-rule="evenodd" clip-rule="evenodd" d="M38.4921 111.869C48.2925 119.17 61.5434 118.942 71.6409 112.018C81.9284 104.964 87.9595 92.4272 84.2076 80.5215C80.6151 69.1218 68.3853 64.1973 56.4728 63.8857C44.4063 63.5701 31.6221 67.6847 27.369 79.0348C22.8804 91.0128 28.2723 104.255 38.4921 111.869Z" fill="#FFC04C"/>
<path d="M55.6945 66.0009L56.4741 67.6378H58.9968L56.9559 68.6495L57.7354 70.2864L55.6945 69.2747L53.6536 70.2864L54.4332 68.6495L52.3922 67.6378H54.9149L55.6945 66.0009Z" fill="#75A87D"/>
<path fill-rule="evenodd" clip-rule="evenodd" d="M47.569 66.8374C47.8963 66.8257 48.1947 67.0687 48.2963 67.4301C48.3984 67.793 48.2848 68.1992 48.0118 68.4119C47.7644 68.6046 47.448 68.4859 47.2121 68.2748C46.9995 68.0844 46.8938 67.7773 46.9682 67.4778C47.0514 67.1425 47.2686 66.8482 47.569 66.8374Z" fill="#FFDB99"/>
<path fill-rule="evenodd" clip-rule="evenodd" d="M73.4023 71.5754C73.7296 71.5636 74.028 71.8066 74.1296 72.168C74.2316 72.5309 74.1181 72.9371 73.845 73.1499C73.5977 73.3426 73.2813 73.2239 73.0453 73.0127C72.8327 72.8224 72.7271 72.5152 72.8014 72.2157C72.8847 71.8804 73.1018 71.5862 73.4023 71.5754Z" fill="#FFDB99"/>
<path fill-rule="evenodd" clip-rule="evenodd" d="M60.6246 112C60.9519 111.989 61.2503 112.232 61.3519 112.593C61.4539 112.956 61.3404 113.362 61.0673 113.575C60.8199 113.768 60.5036 113.649 60.2676 113.438C60.055 113.247 59.9494 112.94 60.0237 112.641C60.107 112.305 60.3241 112.011 60.6246 112Z" fill="#FFDB99"/>
<path fill-rule="evenodd" clip-rule="evenodd" d="M41.3146 76.592C41.6152 76.6021 41.8463 76.8595 41.9263 77.1692C41.9959 77.4386 41.8576 77.7043 41.6434 77.8648C41.4411 78.0164 41.1805 78.027 40.9731 77.8836C40.7206 77.7089 40.4906 77.4331 40.5723 77.1238C40.6619 76.7853 40.9854 76.581 41.3146 76.592Z" fill="#FFDB99"/>
<path fill-rule="evenodd" clip-rule="evenodd" d="M68.7096 80.1098C68.9628 80.2239 69.2793 80.2328 69.4764 79.9988C69.6678 79.7715 69.5982 79.4535 69.4756 79.2004C69.3469 78.9346 69.1489 78.6704 68.8622 78.7305C68.5452 78.7969 68.3047 79.1113 68.2669 79.4536C68.2325 79.7637 68.4509 79.9932 68.7096 80.1098Z" fill="#FFDB99"/>
<path fill-rule="evenodd" clip-rule="evenodd" d="M69.654 109.567C69.9072 109.681 70.2238 109.69 70.4208 109.456C70.6123 109.229 70.5427 108.911 70.4201 108.658C70.2914 108.392 70.0933 108.128 69.8066 108.188C69.4896 108.254 69.2492 108.569 69.2113 108.911C69.177 109.221 69.3953 109.451 69.654 109.567Z" fill="#FFDB99"/>
<path fill-rule="evenodd" clip-rule="evenodd" d="M50.3366 78.543C50.6558 78.5512 50.9304 78.7202 51.0388 78.9767C51.1599 79.2638 51.1463 79.6044 50.8636 79.791C50.558 79.9927 50.1278 79.9782 49.8157 79.7839C49.5052 79.5906 49.3626 79.2462 49.4923 78.9373C49.612 78.6522 49.9822 78.534 50.3366 78.543Z" fill="#FFDB99"/>
<path fill-rule="evenodd" clip-rule="evenodd" d="M78.8922 95.0005C79.2114 95.0086 79.486 95.1776 79.5943 95.4342C79.7155 95.7212 79.7018 96.0619 79.4191 96.2485C79.1136 96.4501 78.6833 96.4357 78.3712 96.2414C78.0607 96.0481 77.9182 95.7037 78.0479 95.3947C78.1675 95.1096 78.5377 94.9914 78.8922 95.0005Z" fill="#FFDB99"/>
<path fill-rule="evenodd" clip-rule="evenodd" d="M34.8922 88.0005C35.2114 88.0086 35.486 88.1776 35.5943 88.4342C35.7155 88.7212 35.7018 89.0619 35.4191 89.2485C35.1136 89.4501 34.6833 89.4357 34.3712 89.2414C34.0607 89.0481 33.9182 88.7037 34.0479 88.3947C34.1675 88.1096 34.5377 87.9914 34.8922 88.0005Z" fill="#FFDB99"/>
<path fill-rule="evenodd" clip-rule="evenodd" d="M61.3201 82.7238C61.5876 82.7097 61.8461 82.9076 61.9245 83.2274C61.9997 83.5337 61.8518 83.8425 61.6381 84.0197C61.4518 84.1742 61.2116 84.1347 61.0328 83.9668C60.8633 83.8077 60.7952 83.5381 60.854 83.2836C60.9201 82.9976 61.0821 82.7363 61.3201 82.7238Z" fill="#FFDB99"/>
<path fill-rule="evenodd" clip-rule="evenodd" d="M50.4868 101.001C50.7543 100.987 51.0128 101.184 51.0913 101.504C51.1665 101.811 51.0185 102.119 50.8049 102.297C50.6185 102.451 50.3783 102.412 50.1995 102.244C50.03 102.085 49.962 101.815 50.0208 101.56C50.0869 101.274 50.2488 101.013 50.4868 101.001Z" fill="#FFDB99"/>
<path fill-rule="evenodd" clip-rule="evenodd" d="M55.1963 86.3466C55.5017 86.3566 55.7122 86.6245 55.7999 86.9197C55.8807 87.1914 55.8172 87.4967 55.5863 87.6588C55.3673 87.8124 55.0871 87.7266 54.8674 87.5741C54.6235 87.4046 54.3818 87.1643 54.4591 86.8759C54.5461 86.5512 54.863 86.3357 55.1963 86.3466Z" fill="#FFDB99"/>
<path fill-rule="evenodd" clip-rule="evenodd" d="M42.8701 80.7724C43.1854 80.7644 43.4858 80.9467 43.5821 81.2464C43.6772 81.5427 43.5297 81.8536 43.275 82.0333C43.0309 82.2055 42.7035 82.2134 42.4637 82.0352C42.2321 81.8631 42.173 81.5542 42.2613 81.2798C42.3507 81.0021 42.5778 80.7798 42.8701 80.7724Z" fill="#FFDB99"/>
<path fill-rule="evenodd" clip-rule="evenodd" d="M80.6478 90.0003C80.9631 89.9923 81.2635 90.1745 81.3598 90.4742C81.455 90.7705 81.3074 91.0815 81.0527 91.2611C80.8086 91.4333 80.4812 91.4413 80.2414 91.2631C80.0098 91.0909 79.9507 90.782 80.039 90.5077C80.1284 90.23 80.3555 90.0077 80.6478 90.0003Z" fill="#FFDB99"/>
<path fill-rule="evenodd" clip-rule="evenodd" d="M48.5238 64.3287C39.1214 65.6677 30.4958 70.1187 27.1499 79.0477C22.6614 91.0258 28.0533 104.268 38.2731 111.882C41.3227 114.154 44.7064 115.697 48.2253 116.536C39.5137 111.485 33.6111 101.727 33.6111 90.5175C33.6111 79.1802 39.6488 69.3275 48.5238 64.3287Z" fill="#FFA500"/>
<path fill-rule="evenodd" clip-rule="evenodd" d="M33.6478 100C33.9631 99.9923 34.2635 100.175 34.3598 100.474C34.455 100.771 34.3074 101.081 34.0527 101.261C33.8086 101.433 33.4812 101.441 33.2414 101.263C33.0098 101.091 32.9507 100.782 33.039 100.508C33.1284 100.23 33.3555 100.008 33.6478 100Z" fill="#FFC04C"/>
<path fill-rule="evenodd" clip-rule="evenodd" d="M38.4921 111.869C48.2925 119.17 61.5434 118.942 71.6409 112.018C81.9284 104.964 87.9595 92.4272 84.2076 80.5215C80.6151 69.1218 68.3853 64.1973 56.4728 63.8857C44.4063 63.5701 31.6221 67.6847 27.369 79.0348C22.8804 91.0128 28.2723 104.255 38.4921 111.869Z" fill="#FFC04C"/>
<path fill-rule="evenodd" clip-rule="evenodd" d="M38.4921 111.869C48.2925 119.17 61.5434 118.942 71.6409 112.018C81.9284 104.964 87.9595 92.4272 84.2076 80.5215C80.6151 69.1218 68.3853 64.1973 56.4728 63.8857C44.4063 63.5701 31.6221 67.6847 27.369 79.0348C22.8804 91.0128 28.2723 104.255 38.4921 111.869Z" fill="#FFC04C"/>
<path fill-rule="evenodd" clip-rule="evenodd" d="M47.569 66.8374C47.8963 66.8257 48.1947 67.0687 48.2963 67.4301C48.3984 67.793 48.2848 68.1992 48.0118 68.4119C47.7644 68.6046 47.448 68.4859 47.2121 68.2748C46.9995 68.0844 46.8938 67.7773 46.9682 67.4778C47.0514 67.1425 47.2686 66.8482 47.569 66.8374Z" fill="#FFDB99"/>
<path fill-rule="evenodd" clip-rule="evenodd" d="M73.4023 71.5754C73.7296 71.5636 74.028 71.8066 74.1296 72.168C74.2316 72.5309 74.1181 72.9371 73.845 73.1499C73.5977 73.3426 73.2813 73.2239 73.0453 73.0127C72.8327 72.8224 72.7271 72.5152 72.8014 72.2157C72.8847 71.8804 73.1018 71.5862 73.4023 71.5754Z" fill="#FFDB99"/>
<path fill-rule="evenodd" clip-rule="evenodd" d="M60.6246 112C60.9519 111.989 61.2503 112.232 61.3519 112.593C61.4539 112.956 61.3404 113.362 61.0673 113.575C60.8199 113.768 60.5036 113.649 60.2676 113.438C60.055 113.247 59.9494 112.94 60.0237 112.641C60.107 112.305 60.3241 112.011 60.6246 112Z" fill="#FFDB99"/>
<path fill-rule="evenodd" clip-rule="evenodd" d="M41.3146 76.592C41.6152 76.6021 41.8463 76.8595 41.9263 77.1692C41.9959 77.4386 41.8576 77.7043 41.6434 77.8648C41.4411 78.0164 41.1805 78.027 40.9731 77.8836C40.7206 77.7089 40.4906 77.4331 40.5723 77.1238C40.6619 76.7853 40.9854 76.581 41.3146 76.592Z" fill="#FFDB99"/>
<path fill-rule="evenodd" clip-rule="evenodd" d="M68.7096 80.1098C68.9628 80.2239 69.2793 80.2328 69.4764 79.9988C69.6678 79.7715 69.5982 79.4535 69.4756 79.2004C69.3469 78.9346 69.1489 78.6704 68.8622 78.7305C68.5452 78.7969 68.3047 79.1113 68.2669 79.4536C68.2325 79.7637 68.4509 79.9932 68.7096 80.1098Z" fill="#FFDB99"/>
<path fill-rule="evenodd" clip-rule="evenodd" d="M69.654 109.567C69.9072 109.681 70.2238 109.69 70.4208 109.456C70.6123 109.229 70.5427 108.911 70.4201 108.658C70.2914 108.392 70.0933 108.128 69.8066 108.188C69.4896 108.254 69.2492 108.569 69.2113 108.911C69.177 109.221 69.3953 109.451 69.654 109.567Z" fill="#FFDB99"/>
<path fill-rule="evenodd" clip-rule="evenodd" d="M50.3366 78.543C50.6558 78.5512 50.9304 78.7202 51.0388 78.9767C51.1599 79.2638 51.1463 79.6044 50.8636 79.791C50.558 79.9927 50.1278 79.9782 49.8157 79.7839C49.5052 79.5906 49.3626 79.2462 49.4923 78.9373C49.612 78.6522 49.9822 78.534 50.3366 78.543Z" fill="#FFDB99"/>
<path fill-rule="evenodd" clip-rule="evenodd" d="M78.8922 95.0005C79.2114 95.0086 79.486 95.1776 79.5943 95.4342C79.7155 95.7212 79.7018 96.0619 79.4191 96.2485C79.1136 96.4501 78.6833 96.4357 78.3712 96.2414C78.0607 96.0481 77.9182 95.7037 78.0479 95.3947C78.1675 95.1096 78.5377 94.9914 78.8922 95.0005Z" fill="#FFDB99"/>
<path fill-rule="evenodd" clip-rule="evenodd" d="M34.8922 88.0005C35.2114 88.0086 35.486 88.1776 35.5943 88.4342C35.7155 88.7212 35.7018 89.0619 35.4191 89.2485C35.1136 89.4501 34.6833 89.4357 34.3712 89.2414C34.0607 89.0481 33.9182 88.7037 34.0479 88.3947C34.1675 88.1096 34.5377 87.9914 34.8922 88.0005Z" fill="#FFDB99"/>
<path fill-rule="evenodd" clip-rule="evenodd" d="M61.3201 82.7238C61.5876 82.7097 61.8461 82.9076 61.9245 83.2274C61.9997 83.5337 61.8518 83.8425 61.6381 84.0197C61.4518 84.1742 61.2116 84.1347 61.0328 83.9668C60.8633 83.8077 60.7952 83.5381 60.854 83.2836C60.9201 82.9976 61.0821 82.7363 61.3201 82.7238Z" fill="#FFDB99"/>
<path fill-rule="evenodd" clip-rule="evenodd" d="M50.4868 101.001C50.7543 100.987 51.0128 101.184 51.0913 101.504C51.1665 101.811 51.0185 102.119 50.8049 102.297C50.6185 102.451 50.3783 102.412 50.1995 102.244C50.03 102.085 49.962 101.815 50.0208 101.56C50.0869 101.274 50.2488 101.013 50.4868 101.001Z" fill="#FFDB99"/>
<path fill-rule="evenodd" clip-rule="evenodd" d="M55.1963 86.3466C55.5017 86.3566 55.7122 86.6245 55.7999 86.9197C55.8807 87.1914 55.8172 87.4967 55.5863 87.6588C55.3673 87.8124 55.0871 87.7266 54.8674 87.5741C54.6235 87.4046 54.3818 87.1643 54.4591 86.8759C54.5461 86.5512 54.863 86.3357 55.1963 86.3466Z" fill="#FFDB99"/>
<path fill-rule="evenodd" clip-rule="evenodd" d="M42.8701 80.7724C43.1854 80.7644 43.4858 80.9467 43.5821 81.2464C43.6772 81.5427 43.5297 81.8536 43.275 82.0333C43.0309 82.2055 42.7035 82.2134 42.4637 82.0352C42.2321 81.8631 42.173 81.5542 42.2613 81.2798C42.3507 81.0021 42.5778 80.7798 42.8701 80.7724Z" fill="#FFDB99"/>
<path fill-rule="evenodd" clip-rule="evenodd" d="M80.6478 90.0003C80.9631 89.9923 81.2635 90.1745 81.3598 90.4742C81.455 90.7705 81.3074 91.0815 81.0527 91.2611C80.8086 91.4333 80.4812 91.4413 80.2414 91.2631C80.0098 91.0909 79.9507 90.782 80.039 90.5077C80.1284 90.23 80.3555 90.0077 80.6478 90.0003Z" fill="#FFDB99"/>
<path fill-rule="evenodd" clip-rule="evenodd" d="M48.5238 64.3287C39.1214 65.6677 30.4958 70.1187 27.1499 79.0477C22.6614 91.0258 28.0533 104.268 38.2731 111.882C41.3227 114.154 44.7064 115.697 48.2253 116.536C39.5137 111.485 33.6111 101.727 33.6111 90.5175C33.6111 79.1802 39.6488 69.3275 48.5238 64.3287Z" fill="#FFA500"/>
<path fill-rule="evenodd" clip-rule="evenodd" d="M33.6478 100C33.9631 99.9923 34.2635 100.175 34.3598 100.474C34.455 100.771 34.3074 101.081 34.0527 101.261C33.8086 101.433 33.4812 101.441 33.2414 101.263C33.0098 101.091 32.9507 100.782 33.039 100.508C33.1284 100.23 33.3555 100.008 33.6478 100Z" fill="#FFC04C"/>
<path fill-rule="evenodd" clip-rule="evenodd" d="M38.4921 111.869C48.2925 119.17 61.5434 118.942 71.6409 112.018C81.9284 104.964 87.9595 92.4272 84.2076 80.5215C80.6151 69.1218 68.3853 64.1973 56.4728 63.8857C44.4063 63.5701 31.6221 67.6847 27.369 79.0348C22.8804 91.0128 28.2723 104.255 38.4921 111.869Z" fill="#FFC04C"/>
<path fill-rule="evenodd" clip-rule="evenodd" d="M38.4921 111.869C48.2925 119.17 61.5434 118.942 71.6409 112.018C81.9284 104.964 87.9595 92.4272 84.2076 80.5215C80.6151 69.1218 68.3853 64.1973 56.4728 63.8857C44.4063 63.5701 31.6221 67.6847 27.369 79.0348C22.8804 91.0128 28.2723 104.255 38.4921 111.869Z" fill="#FFC04C"/>
<path fill-rule="evenodd" clip-rule="evenodd" d="M47.569 66.8374C47.8963 66.8257 48.1947 67.0687 48.2963 67.4301C48.3984 67.793 48.2848 68.1992 48.0118 68.4119C47.7644 68.6046 47.448 68.4859 47.2121 68.2748C46.9995 68.0844 46.8938 67.7773 46.9682 67.4778C47.0514 67.1425 47.2686 66.8482 47.569 66.8374Z" fill="#FFDB99"/>
<path fill-rule="evenodd" clip-rule="evenodd" d="M73.4023 71.5754C73.7296 71.5636 74.028 71.8066 74.1296 72.168C74.2316 72.5309 74.1181 72.9371 73.845 73.1499C73.5977 73.3426 73.2813 73.2239 73.0453 73.0127C72.8327 72.8224 72.7271 72.5152 72.8014 72.2157C72.8847 71.8804 73.1018 71.5862 73.4023 71.5754Z" fill="#FFDB99"/>
<path fill-rule="evenodd" clip-rule="evenodd" d="M60.6246 112C60.9519 111.989 61.2503 112.232 61.3519 112.593C61.4539 112.956 61.3404 113.362 61.0673 113.575C60.8199 113.768 60.5036 113.649 60.2676 113.438C60.055 113.247 59.9494 112.94 60.0237 112.641C60.107 112.305 60.3241 112.011 60.6246 112Z" fill="#FFDB99"/>
<path fill-rule="evenodd" clip-rule="evenodd" d="M41.3146 76.592C41.6152 76.6021 41.8463 76.8595 41.9263 77.1692C41.9959 77.4386 41.8576 77.7043 41.6434 77.8648C41.4411 78.0164 41.1805 78.027 40.9731 77.8836C40.7206 77.7089 40.4906 77.4331 40.5723 77.1238C40.6619 76.7853 40.9854 76.581 41.3146 76.592Z" fill="#FFDB99"/>
<path fill-rule="evenodd" clip-rule="evenodd" d="M68.7096 80.1098C68.9628 80.2239 69.2793 80.2328 69.4764 79.9988C69.6678 79.7715 69.5982 79.4535 69.4756 79.2004C69.3469 78.9346 69.1489 78.6704 68.8622 78.7305C68.5452 78.7969 68.3047 79.1113 68.2669 79.4536C68.2325 79.7637 68.4509 79.9932 68.7096 80.1098Z" fill="#FFDB99"/>
<path fill-rule="evenodd" clip-rule="evenodd" d="M69.654 109.567C69.9072 109.681 70.2238 109.69 70.4208 109.456C70.6123 109.229 70.5427 108.911 70.4201 108.658C70.2914 108.392 70.0933 108.128 69.8066 108.188C69.4896 108.254 69.2492 108.569 69.2113 108.911C69.177 109.221 69.3953 109.451 69.654 109.567Z" fill="#FFDB99"/>
<path fill-rule="evenodd" clip-rule="evenodd" d="M50.3366 78.543C50.6558 78.5512 50.9304 78.7202 51.0388 78.9767C51.1599 79.2638 51.1463 79.6044 50.8636 79.791C50.558 79.9927 50.1278 79.9782 49.8157 79.7839C49.5052 79.5906 49.3626 79.2462 49.4923 78.9373C49.612 78.6522 49.9822 78.534 50.3366 78.543Z" fill="#FFDB99"/>
<path fill-rule="evenodd" clip-rule="evenodd" d="M78.8922 95.0005C79.2114 95.0086 79.486 95.1776 79.5943 95.4342C79.7155 95.7212 79.7018 96.0619 79.4191 96.2485C79.1136 96.4501 78.6833 96.4357 78.3712 96.2414C78.0607 96.0481 77.9182 95.7037 78.0479 95.3947C78.1675 95.1096 78.5377 94.9914 78.8922 95.0005Z" fill="#FFDB99"/>
<path fill-rule="evenodd" clip-rule="evenodd" d="M34.8922 88.0005C35.2114 88.0086 35.486 88.1776 35.5943 88.4342C35.7155 88.7212 35.7018 89.0619 35.4191 89.2485C35.1136 89.4501 34.6833 89.4357 34.3712 89.2414C34.0607 89.0481 33.9182 88.7037 34.0479 88.3947C34.1675 88.1096 34.5377 87.9914 34.8922 88.0005Z" fill="#FFDB99"/>
<path fill-rule="evenodd" clip-rule="evenodd" d="M61.3201 82.7238C61.5876 82.7097 61.8461 82.9076 61.9245 83.2274C61.9997 83.5337 61.8518 83.8425 61.6381 84.0197C61.4518 84.1742 61.2116 84.1347 61.0328 83.9668C60.8633 83.8077 60.7952 83.5381 60.854 83.2836C60.9201 82.9976 61.0821 82.7363 61.3201 82.7238Z" fill="#FFDB99"/>
<path fill-rule="evenodd" clip-rule="evenodd" d="M50.4868 101.001C50.7543 100.987 51.0128 101.184 51.0913 101.504C51.1665 101.811 51.0185 102.119 50.8049 102.297C50.6185 102.451 50.3783 102.412 50.1995 102.244C50.03 102.085 49.962 101.815 50.0208 101.56C50.0869 101.274 50.2488 101.013 50.4868 101.001Z" fill="#FFDB99"/>
<path fill-rule="evenodd" clip-rule="evenodd" d="M55.1963 86.3466C55.5017 86.3566 55.7122 86.6245 55.7999 86.9197C55.8807 87.1914 55.8172 87.4967 55.5863 87.6588C55.3673 87.8124 55.0871 87.7266 54.8674 87.5741C54.6235 87.4046 54.3818 87.1643 54.4591 86.8759C54.5461 86.5512 54.863 86.3357 55.1963 86.3466Z" fill="#FFDB99"/>
<path fill-rule="evenodd" clip-rule="evenodd" d="M42.8701 80.7724C43.1854 80.7644 43.4858 80.9467 43.5821 81.2464C43.6772 81.5427 43.5297 81.8536 43.275 82.0333C43.0309 82.2055 42.7035 82.2134 42.4637 82.0352C42.2321 81.8631 42.173 81.5542 42.2613 81.2798C42.3507 81.0021 42.5778 80.7798 42.8701 80.7724Z" fill="#FFDB99"/>
<path fill-rule="evenodd" clip-rule="evenodd" d="M80.6478 90.0003C80.9631 89.9923 81.2635 90.1745 81.3598 90.4742C81.455 90.7705 81.3074 91.0815 81.0527 91.2611C80.8086 91.4333 80.4812 91.4413 80.2414 91.2631C80.0098 91.0909 79.9507 90.782 80.039 90.5077C80.1284 90.23 80.3555 90.0077 80.6478 90.0003Z" fill="#FFDB99"/>
<path fill-rule="evenodd" clip-rule="evenodd" d="M48.5238 64.3287C39.1214 65.6677 30.4958 70.1187 27.1499 79.0477C22.6614 91.0258 28.0533 104.268 38.2731 111.882C41.3227 114.154 44.7064 115.697 48.2253 116.536C39.5137 111.485 33.6111 101.727 33.6111 90.5175C33.6111 79.1802 39.6488 69.3275 48.5238 64.3287Z" fill="#FFA500"/>
<path fill-rule="evenodd" clip-rule="evenodd" d="M33.6478 100C33.9631 99.9923 34.2635 100.175 34.3598 100.474C34.455 100.771 34.3074 101.081 34.0527 101.261C33.8086 101.433 33.4812 101.441 33.2414 101.263C33.0098 101.091 32.9507 100.782 33.039 100.508C33.1284 100.23 33.3555 100.008 33.6478 100Z" fill="#FFC04C"/>
<path d="M54.5 65C54.6084 66.0799 54.3333 66.7527 53.6667 67.2105C53 67.6684 52.5516 67.8791 51 68C52.8929 68.1381 53.5 68.1579 53.6667 68.9474C53.8333 69.7368 53.7741 70.1984 53.6667 71C54.4391 69.4271 54.8775 69.0141 55.6667 68.9474C56.1656 68.9231 56.6907 69.2316 57.8333 70.0526C57.1498 69.1921 56.7591 68.7084 57 68C57.5576 67.4557 58.0102 67.2983 59 67.2105C57.6639 67.321 56.8333 67.5263 55.6667 66.4211C54.5 65.3158 54.5 65 54.5 65Z" fill="#75A87D"/>
<path d="M56 67.5005C56 67.777 55.6147 68 55.0573 68C54.5454 67.9689 54.0422 67.7472 54 67.4995C54 67.223 54.3853 67 54.9427 67C55.5001 67 56 67.2241 56 67.5005Z" fill="#9EC2A4"/>
</svg>
