<svg width="370" height="90" viewBox="0 0 370 90" fill="none" xmlns="http://www.w3.org/2000/svg">
<path d="M4.0088 37.526L0 25.1953L17.7408 20.3125L19.9569 29.0885L58.6257 19.974L60.9662 38.4245L44.0595 40.651L44.4828 43.0208L61.2525 40.9505L62.6345 54.2188L11.3915 60.2865L7.85576 49.375L25.1858 46.4063L24.6131 44.2448L15.0143 46.0417C12.5327 46.467 10.3333 45.9332 8.416 44.4401C6.49045 42.9471 5.02138 40.6424 4.0088 37.526ZM38.6688 89.4531C32.7842 89.7049 28.1156 88.8238 24.6629 86.8099C20.9363 84.9175 18.3509 81.7361 16.9067 77.2656L15.9979 74.4661C17.6827 74.2839 19.1933 74.0799 20.5296 73.8542C21.8409 73.6285 23.1025 73.3724 24.3143 73.0859C25.5094 72.7995 26.7212 72.4566 27.9496 72.0573C29.1697 71.658 30.5059 71.1632 31.9584 70.5729L31.4231 68.3724C29.9457 68.9714 28.5928 69.4748 27.3645 69.8828C26.1278 70.2908 24.9036 70.6424 23.6918 70.9375C22.4717 71.2326 21.1977 71.4974 19.8697 71.7318C18.5252 71.9575 17.0063 72.1701 15.3131 72.3698L11.9766 62.0833L62.8212 56.3542L63.6055 68.2943C61.1654 69.7005 58.5219 70.7769 55.6751 71.5234C52.9112 72.2786 50.1516 72.7387 47.396 72.9036L47.6948 75.2214C50.4089 75.0825 53.1312 74.6441 55.8618 73.9063C58.6672 73.1684 61.2816 72.105 63.7051 70.7161L63.8172 84.1276C60.3728 85.6988 56.5881 86.9401 52.4631 87.8516C48.4958 88.763 43.8977 89.2969 38.6688 89.4531ZM64.1907 30.0781C63.3275 22.9167 64.1699 17.1007 66.718 12.6302C69.3407 8.15972 73.9347 6.21962 80.4998 6.8099C87.2309 8.08594 92.3934 11.0243 95.9872 15.625C99.5063 20.0174 101.457 25.4731 101.839 31.9922C102.154 38.4071 100.801 43.2899 97.78 46.6406C94.7921 50.0781 90.2023 51.6797 84.0106 51.4453C77.9766 51.3932 73.3786 49.5269 70.2163 45.8464C66.9545 42.1918 64.946 36.9358 64.1907 30.0781ZM123.464 54.401L103.955 52.9036L101.963 12.8125L122.418 17.8776L122.679 24.1406L128.419 25.3125L128.904 44.8438L123.302 44.2188L123.464 54.401ZM76.2047 26.7318L75.5822 29.7005C80.2716 32.079 85.1518 33.4505 90.223 33.8151L90.0238 30.9505C87.5837 30.7335 85.2348 30.2431 82.9773 29.4792C80.728 28.75 78.4705 27.8342 76.2047 26.7318ZM67.6641 71.3411C67.5811 68.1467 68.0044 65.4123 68.934 63.138C69.8636 60.8377 71.3908 58.941 73.5155 57.4479C75.6818 55.9635 78.5161 54.8872 82.0187 54.2188C85.5876 53.6198 89.8786 53.4288 94.8917 53.6458C99.996 53.941 104.441 54.5443 108.225 55.4557C112.043 56.3585 115.193 57.5781 117.675 59.1146C120.156 60.625 121.995 62.474 123.19 64.6615C124.377 66.8316 124.958 69.4271 124.933 72.4479C124.9 75.4688 124.269 78.0208 123.04 80.1042C121.812 82.1962 119.936 83.8932 117.413 85.1953C114.89 86.5061 111.695 87.4523 107.827 88.0339C103.976 88.6328 99.4607 88.9062 94.2816 88.8542C89.2104 88.8108 84.9111 88.4592 81.3837 87.7995C78.014 87.1398 75.3332 86.1155 73.3412 84.7266C71.3908 83.3464 69.9756 81.5625 69.0959 79.375C68.1663 77.1875 67.689 74.5096 67.6641 71.3411ZM86.6997 66.6797L85.8034 69.3099C87.1479 70.1693 88.588 70.8984 90.1234 71.4974C91.6755 72.0964 93.269 72.5781 94.9041 72.9427C96.5558 73.3073 98.2157 73.5547 99.884 73.6849C101.569 73.8151 103.196 73.8455 104.764 73.776L104.802 71.2109C103.333 71.2804 101.793 71.2326 100.183 71.0677C98.5892 70.9028 97.0123 70.6337 95.4519 70.2604C93.8998 69.8958 92.3685 69.4097 90.8579 68.8021C89.3557 68.2031 87.9696 67.4957 86.6997 66.6797ZM194.427 24.8177L194.39 88.4505L172.926 88.5156L172.939 84.2188C171.262 84.2101 169.544 84.2014 167.785 84.1927C166.033 84.184 164.216 84.2014 162.332 84.2448L162.394 69.8568C164.261 69.8307 166.071 69.8307 167.822 69.8568C169.573 69.8741 171.287 69.8915 172.964 69.9089L172.989 24.8177H194.427ZM131.506 41.4063L130.958 19.9219L170.163 24.7656L170.175 50.8464L137.968 49.0885C135.752 48.8976 134.133 48.1901 133.112 46.9661C132.083 45.7335 131.548 43.8802 131.506 41.4063ZM143.632 31.862L142.313 33.75C144.819 35.2257 147.517 36.3889 150.405 37.2396C153.285 38.0295 156.14 38.52 158.97 38.7109L158.958 36.4714C156.128 36.2717 153.434 35.7595 150.878 34.9349C148.305 34.0668 145.89 33.0425 143.632 31.862ZM159.655 67.4609L159.568 88.4505L138.142 88.2161L138.329 66.901C137.25 66.8576 136.158 66.8273 135.054 66.8099C133.951 66.7839 132.834 66.7448 131.705 66.6927L131.643 51.1068C135.287 51.3498 138.723 51.5799 141.952 51.7969C145.18 51.9878 148.347 52.1658 151.451 52.3307C154.563 52.4609 157.696 52.5564 160.85 52.6172C164.004 52.6432 167.332 52.6476 170.835 52.6302L170.822 67.2526C168.905 67.3307 167.034 67.3828 165.208 67.4089C163.382 67.4262 161.531 67.4436 159.655 67.4609ZM237.59 21.3151L237.354 39.2839L198.921 43.2422L199.009 26.875L204.337 26.6667C204.478 27.2309 204.794 27.8255 205.283 28.4505C205.773 29.0668 206.37 29.6311 207.076 30.1432C207.79 30.6467 208.549 31.0503 209.354 31.3542C210.159 31.6493 210.931 31.7882 211.67 31.7708L212.641 30.2474C210.583 30.0825 208.943 29.4835 207.723 28.4505C206.495 27.4002 205.889 26.2543 205.906 25.013L205.931 21.8099L230.768 18.3333L230.681 23.1901L237.59 21.3151ZM258.78 58.8021L259.452 87.2396L239.657 87.6953L239.545 18.3594L259.253 11.224L258.78 36.888L264.27 35.8854L264.233 58.3333L258.78 58.8021ZM198.909 66.6016C198.901 59.1276 200.586 53.5069 203.964 49.7396C207.333 45.9549 212.155 43.8064 218.43 43.2943C224.696 42.5564 229.506 43.8715 232.859 47.2396C236.212 50.7639 237.914 56.5712 237.964 64.6615C238.072 72.7083 236.466 78.8151 233.146 82.9818C229.809 87.0964 224.983 89.2101 218.667 89.3229C212.334 89.4184 207.462 87.5304 204.051 83.6589C200.648 79.8394 198.934 74.1536 198.909 66.6016ZM211.508 62.474L210.188 64.7005C212.653 65.8377 215.309 66.6406 218.156 67.1094C221.003 67.5781 223.825 67.7387 226.622 67.5911L226.597 65.0781C223.808 65.2431 221.152 65.0651 218.629 64.5443C216.098 64.0234 213.724 63.3333 211.508 62.474ZM293.552 41.7839L294.423 16.1849L297.772 16.0547L298.469 0L312.886 1.52344L309.45 61.5885L296.502 61.0807L296.789 41.7839H293.552ZM310.919 61.6927L314.554 1.95313L328.946 6.92708L323.506 60.4818C321.58 61.0721 319.63 61.467 317.654 61.6667C315.679 61.8924 313.434 61.901 310.919 61.6927ZM266.971 27.8125L267.432 8.30729L293.826 0.611979L292.929 23.8021L288.958 24.1016L288.945 24.6615C288.854 27.5434 289.09 29.783 289.655 31.3802C290.219 32.9774 291.194 33.8932 292.581 34.1276L292.219 51.1979C289.746 51.25 287.177 50.2344 284.513 48.151C281.816 46.1285 279.239 43.5807 276.782 40.5078L275.263 42.487C275.869 43.355 276.628 44.2969 277.541 45.3125C278.454 46.3455 279.446 47.1875 280.517 47.8385C279.579 48.8368 278.525 49.6788 277.355 50.3646C276.176 51.0417 274.973 51.6102 273.744 52.0703C272.516 52.5217 271.3 52.8819 270.096 53.151C268.885 53.4201 267.777 53.5981 266.772 53.6849L266.835 37.0052C268.079 36.5365 269.084 35.4948 269.847 33.8802C270.611 32.2396 271.018 30.0955 271.067 27.4479L271.08 26.9401L266.971 27.8125ZM267.943 56.1458L288.285 54.987C288.385 62.8776 291.912 66.9965 298.868 67.3438C303.582 67.691 308.031 67.7127 312.214 67.4089C316.339 67.2092 319.982 66.3368 323.145 64.7917L321.937 85C320.318 85.6163 318.7 86.1328 317.082 86.5495C315.455 86.9835 313.741 87.3221 311.94 87.5651C310.114 87.8255 308.13 87.9948 305.989 88.0729C303.756 88.1684 301.237 88.1944 298.432 88.151C293.502 88.1163 289.024 87.5868 284.999 86.5625C280.915 85.5556 277.512 83.8368 274.79 81.4062C272.084 78.9844 270.121 75.7335 268.901 71.6536C267.731 67.5651 267.411 62.3958 267.943 56.1458ZM354.007 62.4219L352.638 68.1901L335.432 65.2734L337.76 50.0781C338.981 49.9653 340.184 49.7049 341.371 49.2969C342.566 48.8889 343.674 48.3594 344.695 47.7083C345.724 47.0747 346.6 46.3108 347.322 45.4167C348.052 44.5226 348.534 43.4896 348.766 42.3177C349.14 40.434 349.04 38.8368 348.467 37.526C347.886 36.2066 347.031 35.3689 345.903 35.013C343.28 34.1971 340.694 33.9887 338.146 34.388C335.623 34.8394 332.955 36.0894 330.141 38.138L332.855 15.2604C335.403 13.8108 338.478 13.0686 342.081 13.0339C345.699 13.1033 349.994 14.2361 354.966 16.4323C358.244 17.8472 360.988 19.5747 363.195 21.6146C365.353 23.533 367.005 25.6554 368.15 27.9818C369.254 30.2214 369.864 32.6649 369.98 35.3125C370.088 37.9254 369.752 40.6771 368.972 43.5677C367.802 47.8993 365.959 51.7057 363.444 54.987C360.963 58.303 357.817 60.7813 354.007 62.4219ZM352.177 70.1693L347.695 90L336.005 88.8672C334.802 88.763 333.918 88.2595 333.353 87.3568C332.781 86.4627 332.606 84.9913 332.83 82.9427L334.822 67.3568L352.177 70.1693Z" fill="#FFA500"/>
</svg>
