<svg width="298" height="70" viewBox="0 0 298 70" fill="none" xmlns="http://www.w3.org/2000/svg">
<path d="M3.22 28.82L0 19.35L14.25 15.6L16.03 22.34L47.09 15.34L48.97 29.51L35.39 31.22L35.73 33.04L49.2 31.45L50.31 41.64L9.15 46.3L6.31 37.92L20.23 35.64L19.77 33.98L12.06 35.36C10.0667 35.6867 8.3 35.2767 6.76 34.13C5.21333 32.9833 4.03333 31.2133 3.22 28.82ZM31.06 68.7C26.3333 68.8933 22.5833 68.2167 19.81 66.67C16.8167 65.2167 14.74 62.7733 13.58 59.34L12.85 57.19C14.2033 57.05 15.4167 56.8933 16.49 56.72C17.5433 56.5467 18.5567 56.35 19.53 56.13C20.49 55.91 21.4633 55.6467 22.45 55.34C23.43 55.0333 24.5033 54.6533 25.67 54.2L25.24 52.51C24.0533 52.97 22.9667 53.3567 21.98 53.67C20.9867 53.9833 20.0033 54.2533 19.03 54.48C18.05 54.7067 17.0267 54.91 15.96 55.09C14.88 55.2633 13.66 55.4267 12.3 55.58L9.62 47.68L50.46 43.28L51.09 52.45C49.13 53.53 47.0067 54.3567 44.72 54.93C42.5 55.51 40.2833 55.8633 38.07 55.99L38.31 57.77C40.49 57.6633 42.6767 57.3267 44.87 56.76C47.1233 56.1933 49.2233 55.3767 51.17 54.31L51.26 64.61C48.4933 65.8167 45.4533 66.77 42.14 67.47C38.9533 68.17 35.26 68.58 31.06 68.7ZM51.56 23.1C50.8667 17.6 51.5433 13.1333 53.59 9.7C55.6967 6.26667 59.3867 4.77667 64.66 5.23C70.0667 6.21 74.2133 8.46667 77.1 12C79.9267 15.3733 81.4933 19.5633 81.8 24.57C82.0533 29.4967 80.9667 33.2467 78.54 35.82C76.14 38.46 72.4533 39.69 67.48 39.51C62.6333 39.47 58.94 38.0367 56.4 35.21C53.78 32.4033 52.1667 28.3667 51.56 23.1ZM99.17 41.78L83.5 40.63L81.9 9.84L98.33 13.73L98.54 18.54L103.15 19.44L103.54 34.44L99.04 33.96L99.17 41.78ZM61.21 20.53L60.71 22.81C64.4767 24.6367 68.3967 25.69 72.47 25.97L72.31 23.77C70.35 23.6033 68.4633 23.2267 66.65 22.64C64.8433 22.08 63.03 21.3767 61.21 20.53ZM54.35 54.79C54.2833 52.3367 54.6233 50.2367 55.37 48.49C56.1167 46.7233 57.3433 45.2667 59.05 44.12C60.79 42.98 63.0667 42.1533 65.88 41.64C68.7467 41.18 72.1933 41.0333 76.22 41.2C80.32 41.4267 83.89 41.89 86.93 42.59C89.9967 43.2833 92.5267 44.22 94.52 45.4C96.5133 46.56 97.99 47.98 98.95 49.66C99.9033 51.3267 100.37 53.32 100.35 55.64C100.323 57.96 99.8167 59.92 98.83 61.52C97.8433 63.1267 96.3367 64.43 94.31 65.43C92.2833 66.4367 89.7167 67.1633 86.61 67.61C83.5167 68.07 79.89 68.28 75.73 68.24C71.6567 68.2067 68.2033 67.9367 65.37 67.43C62.6633 66.9233 60.51 66.1367 58.91 65.07C57.3433 64.01 56.2067 62.64 55.5 60.96C54.7533 59.28 54.37 57.2233 54.35 54.79ZM69.64 51.21L68.92 53.23C70 53.89 71.1567 54.45 72.39 54.91C73.6367 55.37 74.9167 55.74 76.23 56.02C77.5567 56.3 78.89 56.49 80.23 56.59C81.5833 56.69 82.89 56.7133 84.15 56.66L84.18 54.69C83 54.7433 81.7633 54.7067 80.47 54.58C79.19 54.4533 77.9233 54.2467 76.67 53.96C75.4233 53.68 74.1933 53.3067 72.98 52.84C71.7733 52.38 70.66 51.8367 69.64 51.21ZM156.17 19.06L156.14 67.93L138.9 67.98L138.91 64.68C137.563 64.6733 136.183 64.6667 134.77 64.66C133.363 64.6533 131.903 64.6667 130.39 64.7L130.44 53.65C131.94 53.63 133.393 53.63 134.8 53.65C136.207 53.6633 137.583 53.6767 138.93 53.69L138.95 19.06H156.17ZM105.63 31.8L105.19 15.3L136.68 19.02L136.69 39.05L110.82 37.7C109.04 37.5533 107.74 37.01 106.92 36.07C106.093 35.1233 105.663 33.7 105.63 31.8ZM115.37 24.47L114.31 25.92C116.323 27.0533 118.49 27.9467 120.81 28.6C123.123 29.2067 125.417 29.5833 127.69 29.73L127.68 28.01C125.407 27.8567 123.243 27.4633 121.19 26.83C119.123 26.1633 117.183 25.3767 115.37 24.47ZM128.24 51.81L128.17 67.93L110.96 67.75L111.11 51.38C110.243 51.3467 109.367 51.3233 108.48 51.31C107.593 51.29 106.697 51.26 105.79 51.22L105.74 39.25C108.667 39.4367 111.427 39.6133 114.02 39.78C116.613 39.9267 119.157 40.0633 121.65 40.19C124.15 40.29 126.667 40.3633 129.2 40.41C131.733 40.43 134.407 40.4333 137.22 40.42L137.21 51.65C135.67 51.71 134.167 51.75 132.7 51.77C131.233 51.7833 129.747 51.7967 128.24 51.81ZM190.84 16.37L190.65 30.17L159.78 33.21L159.85 20.64L164.13 20.48C164.243 20.9133 164.497 21.37 164.89 21.85C165.283 22.3233 165.763 22.7567 166.33 23.15C166.903 23.5367 167.513 23.8467 168.16 24.08C168.807 24.3067 169.427 24.4133 170.02 24.4L170.8 23.23C169.147 23.1033 167.83 22.6433 166.85 21.85C165.863 21.0433 165.377 20.1633 165.39 19.21L165.41 16.75L185.36 14.08L185.29 17.81L190.84 16.37ZM207.86 45.16L208.4 67L192.5 67.35L192.41 14.1L208.24 8.62L207.86 28.33L212.27 27.56L212.24 44.8L207.86 45.16ZM159.77 51.15C159.763 45.41 161.117 41.0933 163.83 38.2C166.537 35.2933 170.41 33.6433 175.45 33.25C180.483 32.6833 184.347 33.6933 187.04 36.28C189.733 38.9867 191.1 43.4467 191.14 49.66C191.227 55.84 189.937 60.53 187.27 63.73C184.59 66.89 180.713 68.5133 175.64 68.6C170.553 68.6733 166.64 67.2233 163.9 64.25C161.167 61.3167 159.79 56.95 159.77 51.15ZM169.89 47.98L168.83 49.69C170.81 50.5633 172.943 51.18 175.23 51.54C177.517 51.9 179.783 52.0233 182.03 51.91L182.01 49.98C179.77 50.1067 177.637 49.97 175.61 49.57C173.577 49.17 171.67 48.64 169.89 47.98ZM235.79 32.09L236.49 12.43L239.18 12.33L239.74 0L251.32 1.17L248.56 47.3L238.16 46.91L238.39 32.09H235.79ZM249.74 47.38L252.66 1.5L264.22 5.32L259.85 46.45C258.303 46.9033 256.737 47.2067 255.15 47.36C253.563 47.5333 251.76 47.54 249.74 47.38ZM214.44 21.36L214.81 6.38L236.01 0.47L235.29 18.28L232.1 18.51L232.09 18.94C232.017 21.1533 232.207 22.8733 232.66 24.1C233.113 25.3267 233.897 26.03 235.01 26.21L234.72 39.32C232.733 39.36 230.67 38.58 228.53 36.98C226.363 35.4267 224.293 33.47 222.32 31.11L221.1 32.63C221.587 33.2967 222.197 34.02 222.93 34.8C223.663 35.5933 224.46 36.24 225.32 36.74C224.567 37.5067 223.72 38.1533 222.78 38.68C221.833 39.2 220.867 39.6367 219.88 39.99C218.893 40.3367 217.917 40.6133 216.95 40.82C215.977 41.0267 215.087 41.1633 214.28 41.23L214.33 28.42C215.33 28.06 216.137 27.26 216.75 26.02C217.363 24.76 217.69 23.1133 217.73 21.08L217.74 20.69L214.44 21.36ZM215.22 43.12L231.56 42.23C231.64 48.29 234.473 51.4533 240.06 51.72C243.847 51.9867 247.42 52.0033 250.78 51.77C254.093 51.6167 257.02 50.9467 259.56 49.76L258.59 65.28C257.29 65.7533 255.99 66.15 254.69 66.47C253.383 66.8033 252.007 67.0633 250.56 67.25C249.093 67.45 247.5 67.58 245.78 67.64C243.987 67.7133 241.963 67.7333 239.71 67.7C235.75 67.6733 232.153 67.2667 228.92 66.48C225.64 65.7067 222.907 64.3867 220.72 62.52C218.547 60.66 216.97 58.1633 215.99 55.03C215.05 51.89 214.793 47.92 215.22 43.12ZM284.35 47.94L283.25 52.37L269.43 50.13L271.3 38.46C272.28 38.3733 273.247 38.1733 274.2 37.86C275.16 37.5467 276.05 37.14 276.87 36.64C277.697 36.1533 278.4 35.5667 278.98 34.88C279.567 34.1933 279.953 33.4 280.14 32.5C280.44 31.0533 280.36 29.8267 279.9 28.82C279.433 27.8067 278.747 27.1633 277.84 26.89C275.733 26.2633 273.657 26.1033 271.61 26.41C269.583 26.7567 267.44 27.7167 265.18 29.29L267.36 11.72C269.407 10.6067 271.877 10.0367 274.77 10.01C277.677 10.0633 281.127 10.9333 285.12 12.62C287.753 13.7067 289.957 15.0333 291.73 16.6C293.463 18.0733 294.79 19.7033 295.71 21.49C296.597 23.21 297.087 25.0867 297.18 27.12C297.267 29.1267 296.997 31.24 296.37 33.46C295.43 36.7867 293.95 39.71 291.93 42.23C289.937 44.7767 287.41 46.68 284.35 47.94ZM282.88 53.89L279.28 69.12L269.89 68.25C268.923 68.17 268.213 67.7833 267.76 67.09C267.3 66.4033 267.16 65.2733 267.34 63.7L268.94 51.73L282.88 53.89Z" fill="#FFA500"/>
</svg>
