<svg width="196" height="236" viewBox="0 0 196 236" fill="none" xmlns="http://www.w3.org/2000/svg">
<path d="M88.3001 101.957H66.242C74.6303 107.074 75.2934 109.414 87.6787 114.579C92.7646 116.701 96.7867 114.186 96.999 112.533L88.3001 101.957Z" fill="#FBE6C7"/>
<path d="M80.2225 28.6097L30.8249 18.3752C33.4767 23.0137 34.3533 25.8858 35.1744 31.3389C34.8199 42.4352 33.8777 48.4144 30.8249 58.6309C25.6903 69.325 22.5121 75.1612 16.2231 85.2405L41.6986 99.91C51.2722 102.753 56.6459 103.253 66.242 101.957H88.3001L104.766 105.71C104.766 105.71 132.652 122.424 138.008 121.744C143.365 121.064 147.628 121.988 149.503 117.309L117.193 86.264L99.1737 70.5711C101.038 70.5711 102.591 70.5711 104.766 70.168C105.6 69.9617 106.443 69.7196 107.283 69.4779C108.529 69.1199 110.979 68.1831 110.979 68.1831C115.137 66.3824 118.072 65.3168 120.563 63.9462C120.628 63.9103 120.693 63.8744 120.757 63.8386C124.219 61.9188 126.847 60.0516 130.791 57.2505L130.792 57.2496C131.674 56.6232 132.621 55.9502 133.659 55.2194L140.804 59.6543L177.464 72.618C181.192 73.6415 185.852 75.6884 192.687 74.3238C196.415 72.618 195.052 68.7844 192.687 66.4773L148.571 39.5265L146.397 38.503C141.736 37.1384 117.615 36.477 99.1737 34.4092L80.2225 28.6097Z" fill="#FBE6C7"/>
<path d="M16.2231 85.2405C22.5121 75.1612 25.6903 69.325 30.8249 58.6309C33.8777 48.4144 34.8199 42.4352 35.1744 31.3389C34.3533 25.8858 33.4767 23.0137 30.8249 18.3752C30.1129 16.4143 29.1824 15.1283 26.7861 12.5756C19.8913 8.4977 15.8745 6.63774 8.45624 4.04689L1 2C1 40.6359 1 52.4042 1 91.0401L10.3203 91.0401C13.0738 89.4052 14.3492 88.1117 16.2231 85.2405Z" fill="#C7DCCB"/>
<path d="M134.591 91.3812C138.242 90.1258 138.796 89.709 138.008 86.264L120.563 63.9462C118.072 65.3168 115.137 66.3824 110.979 68.1831C110.979 68.1831 108.529 69.1199 107.283 69.4779C106.443 69.7196 105.6 69.9617 104.766 70.168L127.598 88.2267C130.552 90.6989 132.727 91.0401 134.591 91.3812Z" fill="#FBE6C7"/>
<path d="M162.241 81.829L140.804 59.6543L133.659 55.2194C132.621 55.9502 131.674 56.6232 130.792 57.2496L130.791 57.2505C126.847 60.0516 124.219 61.9188 120.757 63.8386L151.989 88.9402C152.613 89.1274 153.198 89.3449 153.782 89.5619C155.961 90.3722 158.119 91.1745 162.241 90.3578C165.191 87.0271 164.926 85.1597 162.241 81.829Z" fill="#FBE6C7"/>
<path d="M30.8249 18.3752L80.2225 28.6097L99.1737 34.4092C117.615 36.477 141.736 37.1384 146.397 38.503L148.571 39.5265L192.687 66.4773C195.052 68.7844 196.415 72.618 192.687 74.3238C185.852 75.6884 181.192 73.6415 177.464 72.618L140.804 59.6543M30.8249 18.3752C33.4767 23.0137 34.3533 25.8858 35.1744 31.3389C34.8199 42.4352 33.8777 48.4144 30.8249 58.6309C25.6903 69.325 22.5121 75.1612 16.2231 85.2405M30.8249 18.3752C30.1128 16.4143 29.1824 15.1283 26.7861 12.5756C19.8913 8.4977 15.8745 6.63774 8.45624 4.04689L1 2C1 40.6359 1 52.4042 1 91.0401L10.3203 91.0401C13.0738 89.4052 14.3492 88.1117 16.2231 85.2405M140.804 59.6543L162.241 81.829C164.926 85.1597 165.191 87.0271 162.241 90.3578C158.119 91.1745 155.961 90.3722 153.782 89.5619C153.198 89.3449 152.613 89.1274 151.989 88.9402L120.757 63.8386M140.804 59.6543L133.659 55.2194C132.621 55.9502 131.674 56.6232 130.792 57.2496L130.791 57.2505C126.847 60.0516 124.219 61.9188 120.757 63.8386M120.757 63.8386L120.563 63.9462M120.757 63.8386C120.693 63.8744 120.628 63.9103 120.563 63.9462M88.3001 101.957L104.766 105.71C104.766 105.71 132.652 122.424 138.008 121.744C143.365 121.064 147.627 121.988 149.503 117.309L117.193 86.264L99.1737 70.5711M88.3001 101.957H66.242M88.3001 101.957L96.999 112.533C96.7867 114.186 92.7646 116.701 87.6787 114.579C75.2934 109.414 74.6303 107.074 66.242 101.957M16.2231 85.2405L41.6986 99.91C51.2722 102.753 56.6459 103.253 66.242 101.957M84.5719 58.6309L99.1737 70.5711M99.1737 70.5711C101.038 70.5711 102.591 70.5711 104.766 70.168M104.766 70.168C105.6 69.9617 106.443 69.7196 107.283 69.4779C108.529 69.1199 110.979 68.1831 110.979 68.1831C115.137 66.3824 118.072 65.3168 120.563 63.9462M104.766 70.168L127.598 88.2267C130.552 90.6989 132.727 91.0401 134.591 91.3812C138.242 90.1258 138.796 89.709 138.008 86.264L120.563 63.9462" stroke="#F4F4F4" stroke-opacity="0.866667" stroke-width="2"/>
<path fill-rule="evenodd" clip-rule="evenodd" d="M68.9764 204.436C86.7452 217.889 110.77 217.468 129.078 204.711C147.73 191.713 158.665 168.614 151.862 146.678C145.349 125.673 123.175 116.6 101.577 116.026C79.6993 115.444 56.5205 123.026 48.8091 143.938C40.6711 166.008 50.4471 190.407 68.9764 204.436Z" fill="#FFC04C"/>
<path fill-rule="evenodd" clip-rule="evenodd" d="M68.9764 204.436C86.7452 217.889 110.77 217.468 129.078 204.711C147.73 191.713 158.665 168.614 151.862 146.678C145.349 125.673 123.175 116.6 101.577 116.026C79.6993 115.444 56.5205 123.026 48.8091 143.938C40.6711 166.008 50.4471 190.407 68.9764 204.436Z" fill="#FFC04C"/>
<path d="M100.166 119.923L101.579 122.939H106.153L102.453 124.803L103.866 127.819L100.166 125.955L96.4654 127.819L97.8788 124.803L94.1784 122.939H98.7523L100.166 119.923Z" fill="#75A87D"/>
<path fill-rule="evenodd" clip-rule="evenodd" d="M85.4335 121.464C86.027 121.443 86.568 121.89 86.7522 122.556C86.9373 123.225 86.7314 123.973 86.2363 124.365C85.7878 124.72 85.2142 124.502 84.7864 124.113C84.4009 123.762 84.2094 123.196 84.3442 122.644C84.4952 122.026 84.8888 121.484 85.4335 121.464Z" fill="#FFDB99"/>
<path fill-rule="evenodd" clip-rule="evenodd" d="M132.271 130.194C132.865 130.172 133.406 130.62 133.59 131.286C133.775 131.955 133.569 132.703 133.074 133.095C132.626 133.45 132.052 133.231 131.624 132.842C131.239 132.492 131.047 131.926 131.182 131.374C131.333 130.756 131.727 130.214 132.271 130.194Z" fill="#FFDB99"/>
<path fill-rule="evenodd" clip-rule="evenodd" d="M109.104 204.678C109.698 204.656 110.239 205.104 110.423 205.77C110.608 206.439 110.402 207.187 109.907 207.579C109.459 207.934 108.885 207.715 108.457 207.326C108.072 206.976 107.88 206.41 108.015 205.858C108.166 205.24 108.56 204.698 109.104 204.678Z" fill="#FFDB99"/>
<path fill-rule="evenodd" clip-rule="evenodd" d="M74.0937 139.437C74.6388 139.456 75.0578 139.93 75.2028 140.501C75.329 140.997 75.0782 141.487 74.6898 141.782C74.3231 142.062 73.8506 142.081 73.4746 141.817C73.0168 141.495 72.5997 140.987 72.748 140.417C72.9103 139.793 73.4969 139.417 74.0937 139.437Z" fill="#FFDB99"/>
<path fill-rule="evenodd" clip-rule="evenodd" d="M123.763 145.919C124.222 146.129 124.796 146.145 125.153 145.714C125.501 145.296 125.374 144.71 125.152 144.243C124.919 143.754 124.56 143.267 124.04 143.377C123.465 143.5 123.029 144.079 122.96 144.71C122.898 145.281 123.294 145.704 123.763 145.919Z" fill="#FFDB99"/>
<path fill-rule="evenodd" clip-rule="evenodd" d="M125.476 200.195C125.935 200.405 126.509 200.421 126.866 199.99C127.213 199.572 127.087 198.986 126.864 198.519C126.631 198.03 126.272 197.543 125.752 197.654C125.177 197.776 124.742 198.355 124.673 198.986C124.611 199.557 125.006 199.98 125.476 200.195Z" fill="#FFDB99"/>
<path fill-rule="evenodd" clip-rule="evenodd" d="M90.4515 143.032C91.0302 143.047 91.5281 143.358 91.7245 143.831C91.9442 144.36 91.9194 144.988 91.4069 145.331C90.8528 145.703 90.0728 145.676 89.507 145.318C88.944 144.962 88.6855 144.328 88.9206 143.758C89.1376 143.233 89.8088 143.015 90.4515 143.032Z" fill="#FFDB99"/>
<path fill-rule="evenodd" clip-rule="evenodd" d="M142.225 173.355C142.804 173.37 143.302 173.682 143.498 174.154C143.718 174.683 143.693 175.311 143.18 175.655C142.626 176.026 141.846 176 141.281 175.642C140.718 175.285 140.459 174.651 140.694 174.082C140.911 173.556 141.582 173.339 142.225 173.355Z" fill="#FFDB99"/>
<path fill-rule="evenodd" clip-rule="evenodd" d="M62.4494 160.458C63.0281 160.473 63.526 160.784 63.7224 161.257C63.9421 161.786 63.9173 162.413 63.4048 162.757C62.8508 163.129 62.0707 163.102 61.5049 162.744C60.9419 162.388 60.6834 161.753 60.9185 161.184C61.1355 160.659 61.8067 160.441 62.4494 160.458Z" fill="#FFDB99"/>
<path fill-rule="evenodd" clip-rule="evenodd" d="M110.365 150.735C110.85 150.709 111.319 151.074 111.461 151.663C111.598 152.227 111.329 152.796 110.942 153.123C110.604 153.407 110.169 153.335 109.844 153.025C109.537 152.732 109.414 152.235 109.52 151.766C109.64 151.24 109.934 150.758 110.365 150.735Z" fill="#FFDB99"/>
<path fill-rule="evenodd" clip-rule="evenodd" d="M90.7238 184.411C91.2088 184.385 91.6774 184.749 91.8197 185.339C91.956 185.903 91.6878 186.472 91.3004 186.798C90.9626 187.083 90.527 187.01 90.2029 186.701C89.8956 186.408 89.7721 185.911 89.8788 185.442C89.9986 184.915 90.2922 184.434 90.7238 184.411Z" fill="#FFDB99"/>
<path fill-rule="evenodd" clip-rule="evenodd" d="M99.2625 157.41C99.8161 157.429 100.198 157.922 100.357 158.466C100.503 158.967 100.388 159.529 99.9695 159.828C99.5725 160.111 99.0644 159.953 98.6661 159.672C98.2238 159.36 97.7858 158.917 97.9259 158.385C98.0836 157.787 98.6582 157.39 99.2625 157.41Z" fill="#FFDB99"/>
<path fill-rule="evenodd" clip-rule="evenodd" d="M76.914 147.14C77.4857 147.125 78.0304 147.461 78.2049 148.013C78.3774 148.559 78.11 149.132 77.6482 149.463C77.2055 149.78 76.6119 149.795 76.1772 149.467C75.7572 149.149 75.6502 148.58 75.8102 148.075C75.9723 147.563 76.3841 147.154 76.914 147.14Z" fill="#FFDB99"/>
<path fill-rule="evenodd" clip-rule="evenodd" d="M145.408 164.142C145.98 164.127 146.525 164.463 146.699 165.015C146.872 165.561 146.604 166.134 146.142 166.465C145.7 166.783 145.106 166.797 144.671 166.469C144.251 166.152 144.144 165.583 144.304 165.077C144.466 164.565 144.878 164.156 145.408 164.142Z" fill="#FFDB99"/>
<path fill-rule="evenodd" clip-rule="evenodd" d="M87.1646 116.842C70.1174 119.309 54.4784 127.51 48.412 143.962C40.2739 166.032 50.0499 190.431 68.5792 204.459C74.1085 208.646 80.2435 211.489 86.6236 213.034C70.8286 203.729 60.1266 185.749 60.1266 165.095C60.1266 144.206 71.0735 126.052 87.1646 116.842Z" fill="#FFA500"/>
<path fill-rule="evenodd" clip-rule="evenodd" d="M60.1932 182.567C60.7649 182.553 61.3096 182.889 61.4841 183.441C61.6567 183.987 61.3892 184.56 60.9274 184.891C60.4847 185.208 59.8911 185.223 59.4564 184.894C59.0364 184.577 58.9294 184.008 59.0894 183.502C59.2515 182.991 59.6633 182.581 60.1932 182.567Z" fill="#FFC04C"/>
<path fill-rule="evenodd" clip-rule="evenodd" d="M68.9764 204.436C86.7452 217.889 110.77 217.468 129.078 204.711C147.73 191.713 158.665 168.614 151.862 146.678C145.349 125.673 123.175 116.6 101.577 116.026C79.6993 115.444 56.5205 123.026 48.8091 143.938C40.6711 166.008 50.4471 190.407 68.9764 204.436Z" fill="#FFC04C"/>
<path fill-rule="evenodd" clip-rule="evenodd" d="M68.9764 204.436C86.7452 217.889 110.77 217.468 129.078 204.711C147.73 191.713 158.665 168.614 151.862 146.678C145.349 125.673 123.175 116.6 101.577 116.026C79.6993 115.444 56.5205 123.026 48.8091 143.938C40.6711 166.008 50.4471 190.407 68.9764 204.436Z" fill="#FFC04C"/>
<path fill-rule="evenodd" clip-rule="evenodd" d="M85.4335 121.464C86.027 121.443 86.568 121.89 86.7522 122.556C86.9373 123.225 86.7314 123.973 86.2363 124.365C85.7878 124.72 85.2142 124.502 84.7864 124.113C84.4009 123.762 84.2094 123.196 84.3442 122.644C84.4952 122.026 84.8888 121.484 85.4335 121.464Z" fill="#FFDB99"/>
<path fill-rule="evenodd" clip-rule="evenodd" d="M132.271 130.194C132.865 130.172 133.406 130.62 133.59 131.286C133.775 131.955 133.569 132.703 133.074 133.095C132.626 133.45 132.052 133.231 131.624 132.842C131.239 132.492 131.047 131.926 131.182 131.374C131.333 130.756 131.727 130.214 132.271 130.194Z" fill="#FFDB99"/>
<path fill-rule="evenodd" clip-rule="evenodd" d="M109.104 204.678C109.698 204.656 110.239 205.104 110.423 205.77C110.608 206.439 110.402 207.187 109.907 207.579C109.459 207.934 108.885 207.715 108.457 207.326C108.072 206.976 107.88 206.41 108.015 205.858C108.166 205.24 108.56 204.698 109.104 204.678Z" fill="#FFDB99"/>
<path fill-rule="evenodd" clip-rule="evenodd" d="M74.0937 139.437C74.6388 139.456 75.0578 139.93 75.2028 140.501C75.329 140.997 75.0782 141.487 74.6898 141.782C74.3231 142.062 73.8506 142.081 73.4746 141.817C73.0168 141.495 72.5997 140.987 72.748 140.417C72.9103 139.793 73.4969 139.417 74.0937 139.437Z" fill="#FFDB99"/>
<path fill-rule="evenodd" clip-rule="evenodd" d="M123.763 145.919C124.222 146.129 124.796 146.145 125.153 145.714C125.501 145.296 125.374 144.71 125.152 144.243C124.919 143.754 124.56 143.267 124.04 143.377C123.465 143.5 123.029 144.079 122.96 144.71C122.898 145.281 123.294 145.704 123.763 145.919Z" fill="#FFDB99"/>
<path fill-rule="evenodd" clip-rule="evenodd" d="M125.476 200.195C125.935 200.405 126.509 200.421 126.866 199.99C127.213 199.572 127.087 198.986 126.864 198.519C126.631 198.03 126.272 197.543 125.752 197.654C125.177 197.776 124.742 198.355 124.673 198.986C124.611 199.557 125.006 199.98 125.476 200.195Z" fill="#FFDB99"/>
<path fill-rule="evenodd" clip-rule="evenodd" d="M90.4515 143.032C91.0302 143.047 91.5281 143.358 91.7245 143.831C91.9442 144.36 91.9194 144.988 91.4069 145.331C90.8528 145.703 90.0728 145.676 89.507 145.318C88.944 144.962 88.6855 144.328 88.9206 143.758C89.1376 143.233 89.8088 143.015 90.4515 143.032Z" fill="#FFDB99"/>
<path fill-rule="evenodd" clip-rule="evenodd" d="M142.225 173.355C142.804 173.37 143.302 173.682 143.498 174.154C143.718 174.683 143.693 175.311 143.18 175.655C142.626 176.026 141.846 176 141.281 175.642C140.718 175.285 140.459 174.651 140.694 174.082C140.911 173.556 141.582 173.339 142.225 173.355Z" fill="#FFDB99"/>
<path fill-rule="evenodd" clip-rule="evenodd" d="M62.4494 160.458C63.0281 160.473 63.526 160.784 63.7224 161.257C63.9421 161.786 63.9173 162.413 63.4048 162.757C62.8508 163.129 62.0707 163.102 61.5049 162.744C60.9419 162.388 60.6834 161.753 60.9185 161.184C61.1355 160.659 61.8067 160.441 62.4494 160.458Z" fill="#FFDB99"/>
<path fill-rule="evenodd" clip-rule="evenodd" d="M110.365 150.735C110.85 150.709 111.319 151.074 111.461 151.663C111.598 152.227 111.329 152.796 110.942 153.123C110.604 153.407 110.169 153.335 109.844 153.025C109.537 152.732 109.414 152.235 109.52 151.766C109.64 151.24 109.934 150.758 110.365 150.735Z" fill="#FFDB99"/>
<path fill-rule="evenodd" clip-rule="evenodd" d="M90.7238 184.411C91.2088 184.385 91.6774 184.749 91.8197 185.339C91.956 185.903 91.6878 186.472 91.3004 186.798C90.9626 187.083 90.527 187.01 90.2029 186.701C89.8956 186.408 89.7721 185.911 89.8788 185.442C89.9986 184.915 90.2922 184.434 90.7238 184.411Z" fill="#FFDB99"/>
<path fill-rule="evenodd" clip-rule="evenodd" d="M99.2625 157.41C99.8161 157.429 100.198 157.922 100.357 158.466C100.503 158.967 100.388 159.529 99.9695 159.828C99.5725 160.111 99.0644 159.953 98.6661 159.672C98.2238 159.36 97.7858 158.917 97.9259 158.385C98.0836 157.787 98.6582 157.39 99.2625 157.41Z" fill="#FFDB99"/>
<path fill-rule="evenodd" clip-rule="evenodd" d="M76.914 147.14C77.4857 147.125 78.0304 147.461 78.2049 148.013C78.3774 148.559 78.11 149.132 77.6482 149.463C77.2055 149.78 76.6119 149.795 76.1772 149.467C75.7572 149.149 75.6502 148.58 75.8102 148.075C75.9723 147.563 76.3841 147.154 76.914 147.14Z" fill="#FFDB99"/>
<path fill-rule="evenodd" clip-rule="evenodd" d="M145.408 164.142C145.98 164.127 146.525 164.463 146.699 165.015C146.872 165.561 146.604 166.134 146.142 166.465C145.7 166.783 145.106 166.797 144.671 166.469C144.251 166.152 144.144 165.583 144.304 165.077C144.466 164.565 144.878 164.156 145.408 164.142Z" fill="#FFDB99"/>
<path fill-rule="evenodd" clip-rule="evenodd" d="M87.1646 116.842C70.1174 119.309 54.4784 127.51 48.412 143.962C40.2739 166.032 50.0499 190.431 68.5792 204.459C74.1085 208.646 80.2435 211.489 86.6236 213.034C70.8286 203.729 60.1266 185.749 60.1266 165.095C60.1266 144.206 71.0735 126.052 87.1646 116.842Z" fill="#FFA500"/>
<path fill-rule="evenodd" clip-rule="evenodd" d="M60.1932 182.567C60.7649 182.553 61.3096 182.889 61.4841 183.441C61.6567 183.987 61.3892 184.56 60.9274 184.891C60.4847 185.208 59.8911 185.223 59.4564 184.894C59.0364 184.577 58.9294 184.008 59.0894 183.502C59.2515 182.991 59.6633 182.581 60.1932 182.567Z" fill="#FFC04C"/>
<path d="M98 118.079C98.1965 120.069 97.6978 121.308 96.4891 122.152C95.2804 122.995 94.4674 123.384 91.6542 123.606C95.0862 123.861 96.1869 123.897 96.4891 125.352C96.7913 126.806 96.6838 127.657 96.4891 129.134C97.8896 126.236 98.6845 125.475 100.115 125.352C101.02 125.307 101.972 125.875 104.044 127.388C102.804 125.803 102.096 124.912 102.533 123.606C103.544 122.603 104.364 122.313 106.159 122.152C103.736 122.355 102.231 122.734 100.115 120.697C98 118.661 98 118.079 98 118.079Z" fill="#75A87D"/>
<path d="M100.72 122.686C100.72 123.195 100.021 123.606 99.0104 123.606C98.0824 123.549 97.1699 123.141 97.0934 122.684C97.0934 122.175 97.792 121.764 98.8027 121.764C99.8133 121.764 100.72 122.177 100.72 122.686Z" fill="#9EC2A4"/>
</svg>
